<svg xmlns="http://www.w3.org/2000/svg" xmlns:xlink="http://www.w3.org/1999/xlink" width="6912" zoomAndPan="magnify" viewBox="0 0 5184 2592.000001" height="3456" preserveAspectRatio="xMidYMid meet" version="1.0"><defs><clipPath id="a085d936a7"><path d="M 1 0 L 1206 0 L 1206 861 L 1 861 Z M 1 0 " clip-rule="nonzero"/></clipPath><clipPath id="8a2800dabf"><path d="M 1 0 L 1074 0 L 1074 734 L 1 734 Z M 1 0 " clip-rule="nonzero"/></clipPath><clipPath id="2c7419eaa9"><path d="M 1 0 L 943 0 L 943 601 L 1 601 Z M 1 0 " clip-rule="nonzero"/></clipPath><clipPath id="34c00265e6"><path d="M 1 0 L 1337.074219 0 L 1337.074219 993 L 1 993 Z M 1 0 " clip-rule="nonzero"/></clipPath><clipPath id="151b6e9681"><path d="M 3922 1763 L 5183 1763 L 5183 2591 L 3922 2591 Z M 3922 1763 " clip-rule="nonzero"/></clipPath><clipPath id="16a291e708"><path d="M 4054 1890 L 5183 1890 L 5183 2591 L 4054 2591 Z M 4054 1890 " clip-rule="nonzero"/></clipPath><clipPath id="2cb5d76232"><path d="M 4185 2023 L 5183 2023 L 5183 2591 L 4185 2591 Z M 4185 2023 " clip-rule="nonzero"/></clipPath><clipPath id="4cdb14a737"><path d="M 3790.460938 1631 L 5183 1631 L 5183 2591 L 3790.460938 2591 Z M 3790.460938 1631 " clip-rule="nonzero"/></clipPath></defs><path fill="#ffffff" d="M 1 0 L 5183 0 L 5183 2591 L 1 2591 Z M 1 0 " fill-opacity="1" fill-rule="nonzero"/><path fill="#ffffff" d="M 1 0 L 5183 0 L 5183 2591 L 1 2591 Z M 1 0 " fill-opacity="1" fill-rule="nonzero"/><g clip-path="url(#a085d936a7)"><path fill="#5271ff" d="M 1136.527344 -788.664062 L 1205.226562 -788.664062 L 1205.1875 430.382812 C 1205.183594 667.3125 1012.421875 860.15625 775.496094 860.269531 L -443.550781 860.851562 L -443.582031 792.152344 L 775.460938 791.570312 C 974.527344 791.476562 1136.484375 629.445312 1136.492188 430.378906 Z M 1136.527344 -788.664062 " fill-opacity="1" fill-rule="nonzero"/></g><g clip-path="url(#8a2800dabf)"><path fill="#ff914d" d="M 1004.585938 -788.785156 L 1073.28125 -788.785156 L 1073.28125 435.300781 C 1073.28125 599.644531 939.578125 733.347656 775.234375 733.347656 L -444.089844 733.347656 L -444.089844 664.652344 L 775.230469 664.652344 C 901.695312 664.652344 1004.585938 561.765625 1004.585938 435.296875 Z M 1004.585938 -788.785156 " fill-opacity="1" fill-rule="nonzero"/></g><g clip-path="url(#2c7419eaa9)"><path fill="#ffaf00" d="M 873.835938 -788.785156 L 942.53125 -788.785156 L 942.53125 434.65625 C 942.53125 479.160156 925.171875 520.972656 893.644531 552.386719 C 862.265625 583.65625 820.625 600.859375 776.351562 600.859375 C 776.148438 600.859375 775.949219 600.859375 775.75 600.859375 L -444.210938 596.550781 L -443.96875 527.851562 L 775.992188 532.160156 C 776.109375 532.160156 776.230469 532.160156 776.347656 532.160156 C 802.324219 532.160156 826.746094 522.070312 845.15625 503.726562 C 863.648438 485.296875 873.839844 460.769531 873.839844 434.660156 L 873.839844 -788.785156 Z M 873.835938 -788.785156 " fill-opacity="1" fill-rule="nonzero"/></g><g clip-path="url(#34c00265e6)"><path fill="#004aad" d="M 1271.148438 -787.28125 L 1337.074219 -787.28125 L 1337.074219 432.335938 C 1337.074219 741.320312 1085.695312 992.703125 776.710938 992.703125 L -442.90625 992.703125 L -442.90625 926.777344 L 776.710938 926.777344 C 1049.34375 926.777344 1271.148438 704.972656 1271.148438 432.335938 Z M 1271.148438 -787.28125 " fill-opacity="1" fill-rule="nonzero"/></g><g clip-path="url(#151b6e9681)"><path fill="#5271ff" d="M 3991.007812 3412.636719 L 3922.3125 3412.636719 L 3922.347656 2193.585938 C 3922.351562 1956.660156 4115.113281 1763.8125 4352.042969 1763.703125 L 5571.085938 1763.117188 L 5571.117188 1831.816406 L 4352.074219 1832.398438 C 4153.007812 1832.496094 3991.050781 1994.523438 3991.042969 2193.589844 Z M 3991.007812 3412.636719 " fill-opacity="1" fill-rule="nonzero"/></g><g clip-path="url(#16a291e708)"><path fill="#ff914d" d="M 4122.949219 3412.753906 L 4054.253906 3412.753906 L 4054.253906 2188.667969 C 4054.253906 2024.324219 4187.957031 1890.621094 4352.300781 1890.621094 L 5571.625 1890.621094 L 5571.625 1959.320312 L 4352.304688 1959.320312 C 4225.839844 1959.320312 4122.949219 2062.207031 4122.949219 2188.671875 Z M 4122.949219 3412.753906 " fill-opacity="1" fill-rule="nonzero"/></g><g clip-path="url(#2cb5d76232)"><path fill="#ffaf00" d="M 4253.699219 3412.753906 L 4185.003906 3412.753906 L 4185.003906 2189.3125 C 4185.003906 2144.808594 4202.363281 2102.996094 4233.890625 2071.582031 C 4265.269531 2040.316406 4306.910156 2023.113281 4351.183594 2023.113281 C 4351.386719 2023.113281 4351.585938 2023.113281 4351.789062 2023.113281 L 5571.746094 2027.417969 L 5571.503906 2096.117188 L 4351.542969 2091.808594 C 4351.425781 2091.808594 4351.304688 2091.808594 4351.1875 2091.808594 C 4325.214844 2091.808594 4300.789062 2101.898438 4282.378906 2120.242188 C 4263.886719 2138.671875 4253.695312 2163.199219 4253.695312 2189.308594 L 4253.695312 3412.753906 Z M 4253.699219 3412.753906 " fill-opacity="1" fill-rule="nonzero"/></g><g clip-path="url(#4cdb14a737)"><path fill="#004aad" d="M 3856.386719 3411.25 L 3790.460938 3411.25 L 3790.460938 2191.632812 C 3790.460938 1882.648438 4041.839844 1631.269531 4350.824219 1631.269531 L 5570.441406 1631.269531 L 5570.441406 1697.191406 L 4350.824219 1697.191406 C 4078.191406 1697.191406 3856.386719 1919 3856.386719 2191.632812 Z M 3856.386719 3411.25 " fill-opacity="1" fill-rule="nonzero"/></g></svg>