<svg width="588" height="200" viewBox="0 0 588 200" fill="none" xmlns="http://www.w3.org/2000/svg">
<g clip-path="url(#clip0_349_232)">
<path d="M391.369 84.5859C391.324 86.3847 390.952 88.0363 390.491 89.7647C389.743 92.3292 389.743 92.3292 389.89 94.9435C390.739 95.7928 391.759 96.107 392.89 96.4463C393.508 96.7515 393.745 97.0568 394.082 97.6562C394.154 98.346 394.154 98.346 394.128 99.0742C394.122 99.3171 394.115 99.56 394.108 99.8102C394.099 99.9946 394.091 100.179 394.082 100.369C393.754 100.519 393.425 100.667 393.096 100.816C392.789 100.956 392.789 100.956 392.477 101.098C391.863 101.355 391.863 101.355 391.371 101.482C389.495 101.968 388.369 103.629 387.177 105.054C387.067 105.185 386.957 105.315 386.843 105.45C385.663 106.777 385.663 106.777 384.711 108.26C387.215 107.277 389.066 106.114 390.972 104.21C392.116 103.082 392.116 103.082 393.096 103.082C393.069 103.317 393.043 103.551 393.016 103.794C392.971 104.257 392.971 104.257 392.926 104.731C392.895 105.037 392.863 105.343 392.831 105.658C392.851 106.643 392.974 107.009 393.589 107.767C394.235 108.307 394.235 108.307 394.961 108.784C395.761 109.331 396.254 109.668 396.795 110.48C396.715 111.273 396.443 111.657 395.864 112.186C395.723 112.316 395.582 112.446 395.437 112.58C395.285 112.716 395.133 112.852 394.976 112.992C394.742 113.206 394.742 113.206 394.503 113.423C393.378 114.44 392.219 115.407 391.035 116.355C390.344 116.924 389.685 117.518 389.027 118.125C387.924 119.139 386.785 120.09 385.619 121.031C384.971 121.567 384.346 122.12 383.724 122.687C382.684 123.634 381.608 124.527 380.515 125.412C379.683 126.095 378.867 126.793 378.052 127.496C376.815 128.562 375.564 129.606 374.296 130.635C373.541 131.254 372.799 131.887 372.057 132.521C370.957 133.458 369.838 134.363 368.697 135.249C367.338 136.303 366.027 137.402 364.727 138.527C363.739 139.381 362.735 140.207 361.711 141.017C360.854 141.698 360.005 142.388 359.156 143.079C358.988 143.215 358.82 143.352 358.647 143.493C357.791 144.188 356.936 144.885 356.081 145.582C354.398 146.955 352.707 148.315 350.995 149.651C349.907 150.503 348.835 151.374 347.766 152.249C346.202 153.529 344.61 154.767 342.996 155.982C342.022 156.718 341.09 157.478 340.185 158.298C339.828 158.569 339.828 158.569 339.335 158.569C339.335 158.731 339.335 158.894 339.335 159.062C339.513 159.13 339.691 159.198 339.874 159.268C340.543 159.545 341.165 159.856 341.801 160.201C342.155 160.392 342.155 160.392 342.517 160.588C342.769 160.725 343.021 160.862 343.281 161.004C343.675 161.219 343.675 161.219 344.078 161.437C345.759 162.355 347.43 163.288 349.091 164.241C349.303 164.362 349.516 164.484 349.734 164.609C350.799 165.22 351.86 165.834 352.92 166.453C359.066 170.019 365.463 173.268 372.081 175.861C372.845 176.164 373.599 176.489 374.353 176.818C374.29 177.013 374.29 177.013 374.225 177.213C374.031 177.815 373.837 178.419 373.644 179.022C373.578 179.227 373.511 179.432 373.443 179.643C373.012 180.992 372.669 182.336 372.38 183.723C371.648 183.56 370.916 183.397 370.161 183.23C369.81 184.048 369.572 184.818 369.421 185.696C369.258 185.696 369.096 185.696 368.928 185.696C368.765 185.045 368.602 184.394 368.435 183.723C368.221 183.694 368.007 183.666 367.786 183.636C366.993 183.53 366.199 183.423 365.406 183.315C365.063 183.268 364.719 183.222 364.376 183.176C363.882 183.111 363.389 183.043 362.896 182.976C362.599 182.936 362.302 182.896 361.996 182.855C361.283 182.736 361.283 182.736 360.79 182.49C361.673 184.286 362.414 185.443 364.301 186.138C364.66 186.253 365.021 186.363 365.383 186.466C365.891 186.613 365.891 186.613 366.708 186.929C366.948 187.46 366.948 187.46 366.955 187.915C367.118 187.834 367.281 187.752 367.448 187.669C367.941 187.659 368.435 187.658 368.928 187.669C368.851 188.136 368.774 188.604 368.697 189.071C368.654 189.331 368.611 189.592 368.567 189.86C368.452 190.53 368.325 191.195 368.188 191.861C367.944 191.861 367.7 191.861 367.448 191.861C367.535 192.003 367.621 192.146 367.71 192.292C367.978 192.936 367.924 193.191 367.695 193.834C367.532 193.752 367.369 193.671 367.202 193.587C366.835 195.784 366.835 195.784 366.462 198.026C364.244 197.502 362.079 196.859 359.91 196.164C358.876 195.832 357.841 195.504 356.806 195.175C356.588 195.105 356.37 195.036 356.145 194.965C353.904 194.253 351.658 193.557 349.412 192.861C347.527 192.277 345.643 191.689 343.76 191.101C343.273 190.949 342.787 190.798 342.301 190.646C333.701 187.969 325.109 185.227 316.893 181.503C316.562 182.36 316.234 183.218 315.907 184.077C315.807 184.34 315.707 184.603 315.604 184.873C315.071 186.292 314.573 187.712 314.131 189.162C314.003 189.58 314.003 189.58 313.872 190.007C313.71 190.547 313.552 191.088 313.398 191.63C313.325 191.875 313.251 192.121 313.175 192.374C313.113 192.591 313.051 192.808 312.987 193.031C312.372 194.227 310.881 194.612 309.695 195.113C309.463 195.214 309.463 195.214 309.226 195.317C308.078 195.807 308.078 195.807 307.522 195.807C307.286 195.257 307.049 194.707 306.813 194.157C306.747 194.003 306.68 193.849 306.612 193.69C306.421 193.245 306.232 192.8 306.043 192.354C305.942 192.138 305.842 191.922 305.738 191.7C305.358 190.534 305.759 189.232 306.288 188.155C306.533 187.745 306.781 187.337 307.029 186.929C307.315 186.005 307.232 185.396 307.029 184.463C306.468 185.016 305.908 185.572 305.349 186.127C305.111 186.362 305.111 186.362 304.869 186.601C304.715 186.754 304.562 186.906 304.404 187.064C304.263 187.203 304.122 187.343 303.977 187.486C302.908 188.63 302.726 189.427 302.698 190.982C302.658 192.697 302.585 193.958 301.28 195.206C301.127 195.352 300.974 195.499 300.817 195.651C300.454 195.978 300.075 196.288 299.692 196.593C299.152 197.028 298.786 197.454 298.398 198.026C297.641 197.675 297.113 197.309 296.425 196.793C295.285 197.363 294.146 197.932 292.972 198.519C293.295 196.798 293.703 195.136 294.201 193.458C294.351 192.948 294.5 192.438 294.649 191.927C294.727 191.66 294.806 191.394 294.887 191.119C296.561 185.413 298.142 179.686 299.673 173.94C299.927 172.986 300.182 172.032 300.438 171.078C300.615 170.415 300.789 169.752 300.963 169.088C301.07 168.686 301.178 168.283 301.286 167.88C301.332 167.699 301.379 167.518 301.427 167.332C301.684 166.381 302.005 165.757 302.59 164.981C302.81 164.343 303.002 163.72 303.18 163.071C303.293 162.672 303.406 162.273 303.52 161.874C303.579 161.663 303.638 161.451 303.699 161.233C304.869 157.067 306.144 152.939 307.491 148.828C307.568 148.592 307.645 148.356 307.725 148.114C308.548 145.596 309.386 143.086 310.292 140.597C310.617 139.74 310.617 139.74 310.728 138.84C304.848 139.951 304.848 139.951 300.287 143.325C299.735 144.526 299.396 145.786 299.084 147.069C298.709 148.579 298.18 150.009 297.616 151.457C297.522 151.702 297.427 151.946 297.329 152.197C297.132 152.703 296.935 153.208 296.738 153.713C293.63 161.753 290.899 169.905 288.857 178.282C288.364 180.297 287.828 182.158 286.702 183.918C285.81 185.512 285.585 187.279 285.281 189.056C285.19 189.569 285.098 190.081 285.005 190.594C284.921 191.057 284.84 191.521 284.76 191.985C284.277 194.404 284.277 194.404 283.71 194.932C283.184 195.155 282.659 195.366 282.121 195.56C281.902 195.654 281.683 195.748 281.458 195.844C280.743 196.107 280.171 196.279 279.409 196.3C278.782 195.955 278.373 195.576 277.893 195.049C277.38 194.516 276.848 194.19 276.203 193.834C275.719 194.239 275.237 194.645 274.754 195.051C274.609 195.173 274.465 195.295 274.315 195.421C273.193 196.37 272.104 197.349 271.03 198.352C270.531 198.766 270.531 198.766 269.791 199.013C269.552 198.86 269.313 198.707 269.067 198.55C268.618 198.3 268.618 198.3 268.065 198.273C267.003 198.738 266.07 199.362 265.105 199.999C265.024 199.999 264.943 199.999 264.859 199.999C264.788 196.597 264.991 193.27 265.352 189.888C265.042 189.985 265.042 189.985 264.726 190.083C255.809 192.852 246.779 195.431 237.485 196.546C237.239 196.579 236.992 196.611 236.738 196.645C231.3 197.266 225.094 197.003 220.568 193.585C216.188 189.953 214.027 184.981 213.474 179.349C213.434 178.803 213.398 178.255 213.37 177.708C213.341 177.037 213.341 177.037 213.071 176.325C212.935 176.41 212.8 176.496 212.66 176.584C212.042 176.976 211.424 177.367 210.805 177.758C210.592 177.893 210.379 178.028 210.159 178.167C209.569 178.54 208.977 178.912 208.385 179.284C208.142 179.437 207.899 179.591 207.648 179.749C207.152 180.024 207.152 180.024 206.659 180.024C206.415 178.233 206.171 176.443 205.919 174.598C203.058 176.762 203.058 176.762 201.511 179.839C201.493 180.311 201.482 180.784 201.48 181.257C201.403 181.767 201.315 182.276 201.218 182.783C201.18 183.005 201.141 183.227 201.102 183.456C200.987 183.969 200.987 183.969 200.74 184.216C200.476 184.187 200.212 184.159 199.94 184.129C198.837 184.037 197.813 183.97 196.795 184.463C195.606 185.77 194.955 187.517 194.329 189.148C194.085 189.148 193.84 189.148 193.589 189.148C193.202 188.671 192.873 188.208 192.542 187.695C192.441 187.543 192.341 187.392 192.237 187.236C191.909 186.739 191.585 186.241 191.261 185.742C191.036 185.399 190.811 185.056 190.586 184.714C189.939 183.728 189.297 182.74 188.657 181.75C188.502 181.511 188.347 181.273 188.188 181.027C184.283 174.992 180.689 168.74 177.559 162.268C177.459 162.062 177.36 161.856 177.257 161.644C176.93 160.969 176.604 160.293 176.28 159.617C176.18 159.41 176.081 159.203 175.978 158.99C175.217 157.392 174.529 155.768 173.86 154.13C173.314 155.429 172.77 156.729 172.226 158.029C172.144 158.227 172.061 158.425 171.976 158.629C170.809 161.42 169.672 164.222 168.56 167.036C166.599 171.993 166.599 171.993 165.506 174.305C165.43 174.467 165.354 174.628 165.276 174.795C164.895 175.575 164.488 176.326 164.04 177.071C162.717 179.283 161.812 181.499 160.99 183.939C160.867 184.294 160.744 184.648 160.621 185.003C160.13 186.422 159.647 187.84 159.224 189.28C159.17 189.461 159.117 189.641 159.061 189.827C158.96 190.17 158.862 190.514 158.766 190.858C158.499 191.766 158.283 192.323 157.445 192.801C156.943 192.964 156.943 192.964 156.351 193.094C155.962 193.2 155.962 193.2 155.566 193.309C154.844 193.5 154.121 193.673 153.392 193.834C153.072 193.307 152.887 192.983 152.94 192.36C153.193 191.743 153.546 191.304 153.962 190.782C154.89 189.505 155.268 188.257 155.63 186.731C155.858 185.942 155.858 185.942 156.285 185.315C156.689 184.695 156.689 184.695 156.397 183.892C156.3 183.674 156.204 183.455 156.104 183.23C155.914 183.437 155.724 183.645 155.528 183.86C155.278 184.133 155.029 184.405 154.779 184.678C154.653 184.815 154.528 184.952 154.399 185.094C153.907 185.632 153.414 186.166 152.898 186.682C152.793 187.178 152.793 187.178 152.76 187.747C152.741 187.955 152.723 188.164 152.704 188.379C152.669 188.821 152.634 189.263 152.6 189.705C152.581 189.913 152.563 190.121 152.544 190.336C152.529 190.528 152.514 190.72 152.499 190.917C152.468 191.066 152.437 191.215 152.405 191.368C152.242 191.449 152.08 191.53 151.912 191.614C151.172 190.196 151.172 190.196 151.172 189.641C149.522 191.029 148.003 192.535 146.486 194.065C146.246 194.307 146.006 194.548 145.765 194.79C145.183 195.375 144.601 195.96 144.02 196.546C143.2 196.164 142.668 195.731 142.048 195.067C141.84 195.191 141.632 195.316 141.418 195.444C141.147 195.605 140.877 195.765 140.599 195.93C140.33 196.09 140.061 196.25 139.784 196.415C139.088 196.793 139.088 196.793 138.595 196.793C138.95 194.781 139.488 192.835 140.059 190.875C140.157 190.537 140.255 190.199 140.352 189.861C140.615 188.954 140.878 188.047 141.143 187.14C141.309 186.571 141.474 186.001 141.64 185.431C144.778 174.636 148.068 163.89 151.511 153.188C152.306 150.715 153.088 148.238 153.869 145.76C153.998 145.354 154.126 144.947 154.254 144.541C154.542 143.627 154.83 142.713 155.118 141.799C155.005 141.896 154.893 141.992 154.777 142.091C154.551 142.285 154.551 142.285 154.32 142.483C154.162 142.619 154.005 142.754 153.842 142.893C153.501 143.185 153.159 143.476 152.817 143.766C152.661 143.9 152.505 144.035 152.343 144.173C152.184 144.308 152.026 144.444 151.862 144.583C151.017 145.387 150.547 146.049 150.432 147.225C150.508 147.637 150.591 148.048 150.679 148.458C150.813 149.983 150.43 150.901 149.723 152.203C149.633 152.375 149.543 152.547 149.451 152.725C149.279 153.053 149.104 153.381 148.928 153.707C148.687 154.151 148.687 154.151 148.459 154.724C148.213 155.116 148.213 155.116 147.733 155.32C147.467 155.372 147.467 155.372 147.195 155.424C146.88 155.485 146.565 155.546 146.24 155.609C145.512 158.245 144.874 160.89 144.298 163.563C144.256 163.756 144.214 163.949 144.171 164.148C143.435 167.548 142.811 170.961 142.248 174.393C142.205 174.655 142.205 174.655 142.161 174.922C142.085 175.392 142.009 175.863 141.933 176.333C141.801 177.064 141.801 177.064 141.554 177.804C141.086 177.971 141.086 177.971 140.475 178.128C138.964 178.682 138.294 179.672 137.372 180.922C135.912 182.898 134.209 184.45 131.937 185.449C131.774 185.449 131.611 185.449 131.443 185.449C131.362 185.693 131.281 185.937 131.197 186.189C130.362 186.093 130.167 185.897 129.563 185.264C129.189 184.912 129.189 184.912 128.731 184.709C128.204 184.763 128.204 184.763 127.649 184.974C127.431 185.047 127.213 185.12 126.988 185.194C126.749 185.278 126.511 185.362 126.265 185.449C126.009 185.536 125.754 185.623 125.491 185.712C124.663 185.996 123.838 186.284 123.012 186.574C119.661 187.751 119.661 187.751 118.126 188.162C118.858 180.515 119.991 172.881 121.316 165.315C121.452 164.536 121.579 163.8 121.579 163.008C114.645 165.369 107.796 167.937 100.994 170.656C100.564 170.824 100.13 170.983 99.6943 171.136C98.414 171.598 97.6503 171.9 97.0211 173.176C96.8898 173.432 96.7585 173.688 96.6233 173.951C96.4917 174.226 96.3601 174.5 96.2245 174.783C96.0029 175.22 95.7814 175.656 95.5591 176.092C95.333 176.538 95.1102 176.985 94.8877 177.433C94.2391 178.72 93.5437 179.979 92.849 181.241C91.9835 182.829 91.1334 184.425 90.3039 186.032C90.2253 186.184 90.1467 186.336 90.0658 186.493C89.6832 187.235 89.3023 187.978 88.923 188.721C88.7861 188.988 88.6493 189.255 88.5083 189.53C88.3277 189.884 88.3277 189.884 88.1436 190.245C87.8196 190.828 87.4677 191.34 87.0537 191.861C86.4834 191.83 86.4834 191.83 85.8206 191.614C85.3737 190.859 85.3737 190.859 85.0808 190.135C84.3769 190.22 84.1223 190.352 83.6272 190.875C83.4711 191.084 83.315 191.292 83.1542 191.506C82.5132 192.34 81.8698 193.162 81.1813 193.957C81.0475 194.112 80.9136 194.267 80.7757 194.427C80.2636 194.956 79.7427 195.279 79.0609 195.551C78.4359 195.801 77.9026 196.095 77.3309 196.448C77.1346 196.569 76.9383 196.69 76.7361 196.814C76.5347 196.94 76.3333 197.065 76.1258 197.194C75.9197 197.321 75.7135 197.448 75.5011 197.579C74.9947 197.892 74.4888 198.205 73.9834 198.519C73.9834 197.78 73.9834 197.78 74.5999 197.101C75.5262 196.079 76.1077 194.915 76.7226 193.69C77.1005 192.946 77.4562 192.329 77.985 191.675C78.5452 190.965 78.5043 190.522 78.4224 189.641C77.96 190.043 77.5005 190.447 77.0458 190.857C76.4495 191.368 76.4495 191.368 75.8301 191.786C73.8923 193.204 73.4362 194.86 72.8538 197.131C72.3868 198.896 72.3868 198.896 71.6734 199.536C71.0028 199.76 70.4189 199.875 69.714 199.922C69.4962 199.938 69.2785 199.954 69.0541 199.971C68.8904 199.98 68.7267 199.99 68.558 199.999C67.8973 199.008 68.0263 198.46 68.0648 197.286C67.0163 198.115 66.1811 198.95 65.3521 199.999C65.2707 199.836 65.1893 199.673 65.1055 199.506C65.3082 198.981 65.5389 198.468 65.7798 197.96C65.9361 197.626 66.0924 197.292 66.2487 196.958C66.3334 196.778 66.418 196.599 66.5053 196.415C68.2427 192.73 69.8758 189.004 71.4557 185.249C71.5555 185.011 71.6554 184.774 71.7583 184.53C73.0855 181.372 74.3791 178.202 75.6401 175.018C78.0412 168.969 80.6531 163.008 83.3545 157.089C83.4812 156.811 83.6078 156.534 83.7383 156.247C86.9125 149.306 90.2878 142.463 93.6967 135.634C93.8147 135.397 93.9327 135.161 94.0543 134.917C95.6272 131.764 97.2347 128.633 98.8909 125.523C98.9727 125.369 99.0544 125.216 99.1386 125.058C99.645 124.107 100.154 123.158 100.663 122.209C100.982 121.615 101.301 121.021 101.62 120.427C101.7 120.278 101.78 120.129 101.863 119.975C102.423 118.931 102.981 117.886 103.537 116.84C105.102 113.9 106.67 110.964 108.336 108.08C109.002 106.929 109.635 105.774 110.222 104.582C112.178 100.696 112.178 100.696 114.073 100.045C114.559 99.942 115.046 99.8403 115.536 99.7547C116.89 99.4793 118.206 99.0398 119.529 98.6427C119.807 98.5634 120.085 98.4841 120.372 98.4025C123.657 97.4556 126.534 96.0575 129.492 94.3617C131.703 93.1277 133.752 92.4737 136.283 92.2925C139.772 91.9666 143.253 90.8444 146.526 89.625C146.98 89.5181 146.98 89.5181 147.72 89.7647C147.559 90.0003 147.398 90.2358 147.232 90.4785C145.977 92.3301 144.794 94.1819 143.774 96.1766C146.194 95.7554 148.055 95.1765 149.971 93.5945C151.015 92.7486 151.852 92.481 153.145 92.2308C152.881 92.8521 152.627 93.2423 152.146 93.7249C151.329 94.5847 150.701 95.3226 150.656 96.5544C150.774 98.1868 150.925 100.121 151.665 101.602C152.03 100.996 152.395 100.39 152.76 99.7832C152.863 99.6109 152.967 99.4386 153.074 99.2611C153.173 99.0958 153.273 98.9305 153.375 98.7602C153.467 98.6078 153.559 98.4554 153.653 98.2984C154.306 97.184 154.222 96.0645 154.285 94.7913C154.37 94.0264 154.503 93.6247 154.871 92.9706C154.912 92.3129 154.912 92.3129 154.871 91.7376C156.731 90.8601 158.646 90.1812 160.589 89.5178C161.133 89.3316 161.677 89.1432 162.22 88.9546C162.567 88.8353 162.915 88.7162 163.262 88.5972C163.424 88.5409 163.585 88.4847 163.752 88.4268C164.444 88.1922 164.985 88.0385 165.722 88.0385C165.176 89.9982 164.485 91.8992 163.782 93.8067C158.93 107.009 154.942 120.454 151.333 134.043C151.085 134.974 150.837 135.905 150.588 136.836C150.454 137.34 150.32 137.843 150.186 138.347C151.244 138.065 152.302 137.782 153.361 137.499C153.662 137.419 153.964 137.338 154.275 137.256C154.563 137.179 154.85 137.102 155.147 137.022C155.413 136.951 155.679 136.88 155.953 136.807C156.586 136.645 156.586 136.645 157.091 136.374C157.353 135.712 157.587 135.055 157.811 134.38C157.961 133.939 158.111 133.498 158.261 133.058C158.341 132.82 158.422 132.583 158.504 132.339C160.137 127.509 161.868 122.718 163.652 117.943C163.823 117.486 163.993 117.03 164.163 116.573C165.346 113.403 166.544 110.239 167.771 107.086C167.949 106.63 168.125 106.174 168.301 105.717C168.462 105.306 168.462 105.306 168.626 104.887C168.767 104.524 168.767 104.524 168.911 104.154C169.175 103.575 169.175 103.575 169.668 103.082C170.133 103.019 170.133 103.019 170.699 103.014C170.907 103.01 171.114 103.006 171.327 103.001C171.548 102.997 171.768 102.993 171.995 102.989C175.298 102.871 177.469 101.826 180.272 100.122C180.896 99.7536 181.524 99.3902 182.152 99.028C182.301 98.9406 182.45 98.8533 182.604 98.7633C183.668 98.1494 183.668 98.1494 184.218 98.1494C184.191 98.288 184.164 98.4266 184.136 98.5694C183.684 100.967 183.339 103.381 182.985 105.794C184.169 104.529 185.287 103.246 186.314 101.849C186.502 101.601 186.69 101.353 186.884 101.097C187.422 100.392 187.422 100.392 187.84 99.7023C189.63 97.1864 192.949 96.6256 195.808 95.93C196.541 95.8079 196.541 95.8079 197.288 95.6833C197.451 96.7413 197.613 97.7993 197.781 98.8893C198.147 98.7672 198.147 98.7672 198.521 98.6427C198.521 99.2123 198.521 99.782 198.521 100.369C198.765 100.45 199.009 100.532 199.261 100.616C199.181 100.788 199.101 100.96 199.018 101.138C198.741 101.925 198.705 102.524 198.704 103.357C198.702 103.658 198.701 103.958 198.699 104.267C198.7 104.592 198.701 104.917 198.702 105.252C198.702 105.596 198.701 105.94 198.701 106.285C198.7 107.011 198.701 107.736 198.703 108.462C198.706 109.366 198.704 110.271 198.702 111.175C198.684 117.601 198.944 124.008 199.708 130.394C199.728 130.568 199.748 130.741 199.769 130.921C200.235 134.91 200.937 138.848 201.727 142.786C202.029 141.796 202.279 140.812 202.488 139.798C204.242 131.297 206.916 123.006 209.608 114.763C210.141 113.129 210.662 111.492 211.177 109.852C211.544 108.688 211.917 107.526 212.292 106.364C212.471 105.804 212.647 105.242 212.822 104.681C213.065 103.898 213.317 103.119 213.571 102.34C213.676 101.992 213.676 101.992 213.782 101.637C214.249 100.245 214.727 99.5664 216.035 98.8744C216.197 98.7979 216.358 98.7214 216.523 98.6427C216.834 98.4772 217.144 98.3113 217.454 98.1446C217.75 97.9962 218.046 97.8488 218.342 97.7025C218.57 97.5873 218.57 97.5873 218.802 97.4698C219.913 96.9164 219.913 96.9164 220.469 96.9164C220.491 96.7543 220.514 96.5921 220.537 96.4251C220.774 95.443 221.172 94.587 221.61 93.6796C221.688 93.5032 221.767 93.3268 221.848 93.145C222.273 92.2656 222.561 91.816 223.408 91.2954C224.831 90.8144 226.324 90.5278 227.79 90.2117C228.243 90.1109 228.243 90.1109 228.704 90.008C230.94 89.5181 230.94 89.5181 232.06 89.5181C231.701 90.3605 231.232 90.8479 230.572 91.4746C229.323 92.8529 229.27 94.1425 229.224 95.9454C229.209 96.2294 229.195 96.5134 229.18 96.8061C229.145 97.5006 229.119 98.1942 229.101 98.8893C230.786 96.7942 231.885 94.9148 232.568 92.305C232.8 91.491 232.8 91.491 233.293 90.7512C233.334 89.9805 233.334 89.9805 233.293 89.2715C234.387 89.0236 235.481 88.7775 236.576 88.5317C236.887 88.4611 237.199 88.3905 237.519 88.3178C237.817 88.2511 238.115 88.1843 238.423 88.1155C238.835 88.0225 238.835 88.0225 239.256 87.9277C239.951 87.7919 239.951 87.7919 240.691 87.7919C240.202 89.5342 239.604 91.2043 238.919 92.8782C238.828 93.1023 238.737 93.3264 238.644 93.5573C238.423 94.102 238.201 94.6462 237.978 95.1901C238.977 95.1901 239.695 94.795 240.599 94.3954C241.184 94.2037 241.184 94.2037 241.924 94.4503C241.821 94.6805 241.719 94.9107 241.613 95.1479C240.481 97.6847 239.354 100.224 238.229 102.763C238.005 103.268 237.781 103.772 237.556 104.276C230.552 120.028 224.544 136.342 219.729 152.897C219.857 152.672 219.986 152.448 220.118 152.216C224.135 145.177 224.135 145.177 226.141 142.292C226.234 142.159 226.327 142.025 226.422 141.888C229.437 137.558 232.773 133.502 236.364 129.639C236.65 129.327 236.932 129.011 237.213 128.694C238.642 127.084 240.134 125.549 241.658 124.031C242.064 123.626 242.469 123.22 242.874 122.814C244.241 121.445 245.631 120.121 247.103 118.865C247.541 118.465 247.978 118.065 248.413 117.662C249.745 116.449 251.123 115.306 252.528 114.179C252.813 113.948 253.098 113.717 253.383 113.486C258.892 109.032 264.627 104.882 270.777 101.355C271.045 101.2 271.045 101.2 271.318 101.042C281.179 95.3519 291.791 91.0976 302.837 88.3467C303.091 88.2834 303.091 88.2834 303.35 88.2187C306.081 87.5452 306.081 87.5452 307.276 87.5452C306.293 90.839 305.027 93.4885 302.59 95.93C302.187 96.3695 301.786 96.8114 301.388 97.2555C301.21 97.4507 301.033 97.6459 300.85 97.847C300.692 98.0282 300.534 98.2094 300.371 98.396C300.227 98.5502 300.084 98.7044 299.936 98.8633C299.515 99.5801 299.608 100.116 299.646 100.939C299.607 101.797 299.607 101.797 299.384 102.588C298.491 103.385 297.513 103.835 296.425 104.315C296.059 104.559 296.059 104.559 295.685 104.808C295.482 104.838 295.278 104.869 295.068 104.9C294.3 105.092 294.117 105.38 293.712 106.041C295.899 106.128 297.012 105.552 298.656 104.182C299.138 103.821 299.138 103.821 299.631 103.821C299.688 105.057 299.683 106.118 298.943 107.148C298.372 107.716 297.783 108.239 297.165 108.754C296.795 109.082 296.425 109.411 296.055 109.74C295.767 109.987 295.479 110.233 295.192 110.48C294.875 110.741 294.875 110.741 294.917 111.343C294.918 111.61 294.92 111.878 294.921 112.153C294.922 112.442 294.923 112.73 294.923 113.027C294.926 113.331 294.928 113.635 294.93 113.948C294.931 114.405 294.931 114.405 294.933 114.871C294.936 115.627 294.94 116.383 294.945 117.138C294.78 117.204 294.614 117.269 294.444 117.336C287.983 119.9 281.68 122.681 275.71 126.263C275.504 126.386 275.299 126.509 275.087 126.635C269.72 129.873 264.679 133.688 260.102 137.971C259.5 138.532 258.884 139.071 258.262 139.611C256.562 141.136 255.033 142.832 253.484 144.508C253.085 144.937 252.683 145.363 252.278 145.786C247.623 150.721 243.209 156.712 241.184 163.254C241.138 163.402 241.091 163.551 241.043 163.703C240.625 165.843 240.639 168.231 241.773 170.131C243.691 172.644 246.274 173.631 249.322 174.105C253.947 174.512 258.536 173.192 262.912 171.856C263.365 171.718 263.82 171.584 264.277 171.455C264.839 171.295 265.396 171.123 265.953 170.945C266.258 170.852 266.563 170.759 266.877 170.663C267.643 170.108 267.686 170.025 267.866 169.152C267.934 168.666 268 168.18 268.065 167.693C268.19 167.002 268.328 166.312 268.465 165.623C268.538 165.241 268.612 164.859 268.686 164.477C268.742 164.187 268.742 164.187 268.799 163.89C268.874 163.498 268.95 163.107 269.025 162.715C269.481 160.334 269.963 157.966 270.531 155.609C261.928 159.97 261.928 159.97 253.403 164.482C253.064 164.665 253.064 164.665 252.718 164.853C252.234 165.118 251.752 165.388 251.272 165.661C251.026 165.8 250.781 165.938 250.529 166.081C250.309 166.207 250.089 166.333 249.862 166.462C249.684 166.543 249.506 166.624 249.322 166.707C249.16 166.625 248.997 166.544 248.829 166.46C249.473 165.418 250.125 164.383 250.788 163.353C251.011 163.003 251.232 162.651 251.45 162.297C253.496 158.983 253.496 158.983 255.205 158.38C255.526 158.306 255.526 158.306 255.853 158.231C256.572 158.051 257.082 157.727 257.707 157.336C258.2 157.171 258.694 157.007 259.187 156.842C259.35 156.68 259.512 156.517 259.68 156.349C257.727 156.163 256.764 156.619 255.241 157.829C254.58 157.257 254.338 156.764 254.085 155.933C254.023 155.734 253.961 155.534 253.897 155.329C253.83 155.102 253.83 155.102 253.761 154.87C254.233 154.391 254.706 153.913 255.179 153.436C255.312 153.301 255.445 153.166 255.582 153.027C256.256 152.349 256.917 151.717 257.707 151.17C257.636 151.028 257.565 150.886 257.491 150.739C257.235 150.225 256.978 149.711 256.721 149.198C257.016 148.728 257.314 148.261 257.615 147.795C257.781 147.535 257.947 147.274 258.118 147.006C259.429 145.259 261.13 144.457 263.053 143.514C263.541 143.275 264.028 143.032 264.514 142.789C266.179 141.962 267.855 141.171 269.56 140.429C269.877 140.29 270.193 140.15 270.51 140.01C271.107 139.747 271.706 139.495 272.31 139.247C272.58 139.129 272.851 139.01 273.13 138.888C273.367 138.789 273.604 138.69 273.848 138.588C274.543 138.049 274.621 137.806 274.911 137.005C275.284 136.077 275.578 135.703 276.495 135.293C276.912 135.141 277.332 134.999 277.754 134.863C278.087 134.746 278.087 134.746 278.426 134.626C279.131 134.379 279.84 134.143 280.549 133.908C281.028 133.743 281.507 133.577 281.985 133.41C283.033 133.045 284.084 132.688 285.137 132.337C285.592 132.185 285.592 132.185 286.067 131.935C286.154 131.744 286.241 131.553 286.33 131.357C287.036 130.387 287.892 130.201 289.007 129.84C289.232 129.763 289.457 129.687 289.688 129.608C290.432 129.356 291.178 129.112 291.924 128.868C292.446 128.694 292.967 128.52 293.489 128.346C296.888 127.218 300.305 126.151 303.736 125.126C304.225 124.98 304.715 124.833 305.204 124.685C307.533 123.983 309.849 123.304 312.236 122.824C315.428 122.323 315.428 122.323 317.879 120.462C318.373 119.449 318.612 118.383 318.87 117.291C319.344 115.549 320.034 113.877 320.682 112.194C321.095 111.118 321.5 110.04 321.906 108.962C321.984 108.753 322.063 108.544 322.144 108.329C322.556 107.232 322.956 106.133 323.337 105.026C323.582 104.319 323.838 103.616 324.091 102.912C324.17 102.667 324.248 102.421 324.329 102.168C324.678 101.227 324.972 100.573 325.821 100.007C326.45 99.7325 327.08 99.5049 327.733 99.2986C328.31 99.1125 328.878 98.908 329.447 98.7012C330.599 98.2841 331.753 97.8781 332.91 97.476C333.636 97.2232 334.361 96.9683 335.087 96.7131C335.551 96.5508 336.016 96.3887 336.481 96.2267C336.804 96.113 336.804 96.113 337.133 95.997C338.194 95.6303 339.202 95.3299 340.321 95.1901C340.591 98.7138 340.591 98.7138 339.946 99.7245C339.631 100.021 339.314 100.315 338.996 100.607C338.165 101.647 338.34 103.04 338.348 104.315C338.345 104.6 338.342 104.885 338.339 105.179C338.334 105.878 338.337 106.575 338.348 107.274C339.65 105.438 340.736 103.612 341.554 101.509C341.626 101.328 341.697 101.147 341.771 100.96C342.103 100.07 342.318 99.2963 342.373 98.3469C342.583 97.1731 343.054 96.7246 343.99 96.0687C344.224 95.8995 344.224 95.8995 344.462 95.7269C346.869 94.1265 350.72 92.4774 353.638 92.4774C353.235 93.79 352.691 95.0199 352.128 96.269C352.036 96.4741 351.944 96.6791 351.849 96.8904C351.624 97.3926 351.398 97.8944 351.172 98.396C351.392 98.3398 351.612 98.2835 351.839 98.2255C352.272 98.1192 352.272 98.1192 352.713 98.0107C352.999 97.9392 353.286 97.8677 353.58 97.794C354.336 97.6634 354.657 97.6923 355.364 97.9028C355.151 98.3288 355.151 98.3288 354.933 98.7634C353.58 101.465 352.227 104.167 350.875 106.869C350.18 108.258 349.485 109.646 348.789 111.035C348.116 112.379 347.442 113.724 346.77 115.069C346.515 115.577 346.261 116.085 346.006 116.593C343.525 121.542 341.139 126.534 338.795 131.55C338.63 131.904 338.464 132.258 338.298 132.613C337.903 133.455 337.509 134.298 337.115 135.141C337.197 135.222 337.278 135.304 337.362 135.387C337.517 135.229 337.672 135.071 337.832 134.909C339.767 132.953 339.767 132.953 340.814 132.058C341.819 131.199 342.736 130.263 343.665 129.323C344.334 128.663 345.033 128.052 345.748 127.441C346.304 126.945 346.826 126.424 347.35 125.893C348.022 125.211 348.702 124.558 349.43 123.936C350.213 123.265 350.941 122.557 351.665 121.824C352.379 121.101 353.096 120.402 353.869 119.743C354.696 119.037 355.464 118.282 356.228 117.508C357.138 116.586 358.071 115.712 359.057 114.872C359.659 114.334 360.223 113.767 360.79 113.193C361.504 112.47 362.221 111.771 362.994 111.112C363.82 110.405 364.589 109.65 365.352 108.877C366.105 108.114 366.862 107.368 367.679 106.673C368.552 105.929 369.356 105.13 370.161 104.315C371.105 103.358 372.065 102.45 373.089 101.579C373.785 100.955 374.437 100.293 375.093 99.6291C375.888 98.8242 376.68 98.034 377.544 97.3017C378.462 96.5218 379.302 95.676 380.149 94.8202C381.132 93.8256 382.125 92.8735 383.193 91.9688C384.081 91.1702 384.91 90.3106 385.75 89.4611C386.618 88.5869 387.506 87.757 388.448 86.9615C389.16 86.3322 389.811 85.6445 390.466 84.9568C390.876 84.5859 390.876 84.5859 391.369 84.5859ZM293.168 101.229C291.97 101.671 290.909 102.331 289.838 103.017C289.11 103.483 288.421 103.882 287.613 104.195C286.777 104.575 286.463 104.845 285.959 105.594C285.838 105.77 285.716 105.947 285.59 106.129C285.504 106.262 285.417 106.396 285.327 106.534C288.581 106.555 288.581 106.555 291.352 105.06C291.866 104.542 292.363 104.011 292.851 103.469C293.445 102.844 294.102 102.325 294.776 101.787C295.11 101.518 295.11 101.518 295.451 101.244C295.61 101.118 295.768 100.992 295.932 100.862C295.03 100.412 294.085 100.939 293.168 101.229ZM222.28 103.68C222.13 103.833 221.98 103.987 221.826 104.145C221.6 104.373 221.6 104.373 221.371 104.605C220.696 105.348 220.409 105.848 220.367 106.838C220.358 107.035 220.348 107.233 220.338 107.437C220.331 107.643 220.323 107.848 220.315 108.06C220.306 108.268 220.296 108.477 220.286 108.691C220.263 109.205 220.243 109.719 220.223 110.233C221.507 108.654 222.255 107.267 222.784 105.311C222.935 104.808 222.935 104.808 223.182 104.561C223.192 104.15 223.192 103.739 223.182 103.328C222.661 103.275 222.661 103.275 222.28 103.68ZM147.473 105.301C145.943 106.813 145.943 106.813 145.197 108.764C145.237 109.857 145.468 110.902 145.747 111.96C147.232 110.521 147.812 109.378 147.923 107.332C147.966 106.781 147.966 106.781 148.213 106.041C147.969 105.797 147.724 105.553 147.473 105.301ZM330.446 107.225C329.104 108.64 329.154 110.207 329.182 112.07C329.196 112.359 329.21 112.648 329.224 112.946C330.476 111.728 331.211 110.941 331.582 109.216C331.884 107.82 331.884 107.82 332.43 107.274C332.471 106.514 332.471 106.514 332.43 105.794C331.699 105.794 330.957 106.753 330.446 107.225ZM337.855 107.521C338.102 108.014 338.102 108.014 338.102 108.014L337.855 107.521ZM374.971 108.844C374.148 109.682 373.383 110.568 372.627 111.466C372.79 111.548 372.953 111.629 373.12 111.713C374.696 111.061 375.836 110.168 377.066 109C377.269 108.812 377.473 108.624 377.683 108.43C378.107 108.045 378.107 108.045 378.052 107.521C376.9 107.521 375.811 108.076 374.971 108.844ZM280.996 112.9C280.645 113.1 280.645 113.1 280.286 113.305C279.822 113.585 279.366 113.878 278.916 114.179C278.916 114.342 278.916 114.505 278.916 114.672C279.967 114.767 280.5 114.763 281.404 114.187C281.751 113.878 281.751 113.878 282.106 113.563C282.342 113.357 282.578 113.151 282.822 112.938C282.998 112.778 283.173 112.618 283.355 112.453C282.371 112.051 281.88 112.387 280.996 112.9ZM130.21 117.385C130.136 117.502 130.062 117.62 129.986 117.741C129.76 118.098 129.534 118.455 129.309 118.812C129.043 119.234 128.776 119.655 128.51 120.077C127.844 121.132 127.177 122.188 126.508 123.243C124.83 125.892 123.172 128.553 121.525 131.222C121.057 131.981 120.588 132.739 120.119 133.497C118.016 136.899 115.949 140.318 113.934 143.772C113.77 144.053 113.606 144.333 113.437 144.622C113.002 145.364 112.57 146.107 112.138 146.85C111.888 147.279 111.638 147.708 111.387 148.137C111.237 148.397 111.086 148.656 110.931 148.924C110.797 149.155 110.662 149.387 110.524 149.625C110.197 150.152 110.197 150.152 110.235 150.677C111.989 150.129 113.634 149.433 115.306 148.673C117.736 147.582 120.189 146.603 122.703 145.722C122.937 145.638 123.171 145.554 123.412 145.468C123.618 145.396 123.824 145.324 124.037 145.25C124.62 145.018 124.62 145.018 125.031 144.265C125.176 143.623 125.298 142.99 125.407 142.342C125.48 141.929 125.553 141.517 125.626 141.105C125.665 140.885 125.703 140.664 125.743 140.437C126.566 135.752 127.536 131.105 128.576 126.463C128.642 126.172 128.707 125.881 128.774 125.58C129.07 124.261 129.367 122.941 129.667 121.622C129.742 121.295 129.742 121.295 129.817 120.961C129.954 120.386 130.108 119.818 130.265 119.249C130.446 118.421 130.447 118.151 130.21 117.385ZM331.443 118.618C330.388 119.6 330.388 119.6 329.865 120.898C329.863 121.496 329.863 121.496 329.964 122.317C330.585 121.76 330.919 121.228 331.258 120.468C331.346 120.277 331.434 120.086 331.524 119.89C331.758 119.322 331.758 119.322 331.443 118.618ZM313.194 129.715C312.696 129.701 312.197 129.679 311.699 129.654C309.201 129.778 307.625 131.42 305.806 132.993C305.092 133.591 304.342 134.119 303.576 134.648C305.031 135.062 306.362 134.627 307.769 134.154C308.472 133.753 309.12 133.31 309.78 132.843C310.579 132.371 311.308 132.182 312.208 131.966C313.316 131.693 313.316 131.693 314.054 130.889C314.239 130.327 314.363 129.809 314.427 129.222C313.854 129.177 313.854 129.177 313.194 129.715ZM291.493 135.881C291.969 136.183 291.969 136.183 292.468 136.024C293.68 135.618 294.626 135.131 295.685 134.401C295.944 134.32 296.204 134.238 296.471 134.154C297.266 133.872 297.441 133.6 297.904 132.921C295.07 132.285 293.446 134.109 291.493 135.881ZM219.236 153.636C219.483 154.13 219.483 154.13 219.483 154.13L219.236 153.636ZM158.324 168.68C157.958 169.039 157.594 169.398 157.229 169.759C157.026 169.959 156.823 170.159 156.614 170.365C155.733 171.288 155.828 172.058 155.842 173.273C155.843 173.447 155.844 173.621 155.846 173.801C155.848 174.231 155.853 174.661 155.858 175.091C156.539 174.459 156.986 173.933 157.337 173.072C157.587 172.466 157.838 171.871 158.129 171.283C158.224 171.09 158.319 170.897 158.416 170.699C158.505 170.524 158.593 170.35 158.684 170.17C158.875 169.65 158.875 169.65 158.595 169.108C158.506 168.967 158.416 168.825 158.324 168.68ZM220.962 169.913C219.337 171.713 218.483 173.258 217.942 175.625C217.757 176.325 217.757 176.325 217.263 176.818C217.343 177.582 217.343 177.582 217.51 178.297C217.768 178.089 218.025 177.877 218.281 177.665C218.424 177.548 218.567 177.431 218.714 177.31C218.886 177.148 219.059 176.985 219.236 176.818C219.361 176.704 219.486 176.591 219.614 176.474C220.844 175.233 220.974 174.095 221.055 172.394C221.072 172.155 221.089 171.916 221.106 171.669C221.146 171.084 221.181 170.499 221.209 169.913C221.128 169.913 221.046 169.913 220.962 169.913ZM84.0944 173.858C82.8623 174.724 82.0422 175.401 81.7516 176.926C81.7025 177.3 81.6585 177.675 81.6283 178.051C82.8105 177.316 83.0848 176.612 83.4104 175.32C83.4734 175.163 83.5363 175.006 83.6012 174.845C83.8453 174.763 84.0894 174.682 84.341 174.598C84.2596 174.354 84.1782 174.11 84.0944 173.858ZM313.687 174.845C311.895 176.512 311.079 177.805 310.975 180.27C310.971 180.763 310.97 181.257 310.975 181.75C312.639 180.27 313.314 178.426 313.934 176.325C313.992 176.15 314.049 175.976 314.108 175.797C314.132 175.645 314.156 175.494 314.181 175.338C314.018 175.175 313.855 175.013 313.687 174.845ZM155.611 175.091C155.858 175.585 155.858 175.585 155.858 175.585L155.611 175.091ZM84.1252 180.796C82.7695 182.282 82.5974 184.26 82.3681 186.189C83.1582 185.427 83.8442 184.674 84.4643 183.769C84.6099 183.557 84.7555 183.344 84.9055 183.126C85.3949 182.388 85.8677 181.642 86.3273 180.886C86.5605 180.517 86.5605 180.517 86.8071 180.27C86.8171 179.777 86.8176 179.284 86.8071 178.791C85.9599 178.791 84.722 180.222 84.1252 180.796ZM149.199 182.49C147.441 184.06 146.727 185.289 146.492 187.644C146.487 188.295 146.531 188.781 146.733 189.395C148.049 187.954 148.906 186.746 149.305 184.819C149.444 184.226 149.645 183.761 149.939 183.23C149.695 182.985 149.451 182.741 149.199 182.49ZM350.432 183.476C351.221 185.054 352.516 185.789 354.131 186.436C354.805 186.49 354.805 186.49 355.364 186.436C355.186 185.245 355.186 185.245 354.625 184.216C353.253 183.759 351.869 183.603 350.432 183.476Z" fill="#0672B6"/>
<path d="M92.2318 87.7944C92.4148 87.8367 92.5977 87.879 92.7862 87.9226C97.0034 88.9388 101.042 90.8513 103.462 94.5944C103.64 94.8906 103.64 94.8906 103.822 95.1927C103.921 95.3519 104.02 95.5112 104.121 95.6753C106.278 99.5263 105.84 104.128 104.72 108.215C103.854 111.179 102.561 113.929 101.11 116.648C100.958 116.934 100.806 117.221 100.649 117.516C97.1495 123.869 92.1138 129.746 86.5598 134.404C86.4276 134.514 86.2955 134.625 86.1593 134.74C82.7687 137.572 79.2448 140.251 75.4624 142.542C75.6382 142.646 75.814 142.751 75.9951 142.859C78.3594 144.306 80.1426 145.701 81.0304 148.401C82.026 153.692 79.6709 158.702 76.7966 163.001C76.2116 163.845 75.5967 164.663 74.9692 165.476C74.8077 165.687 74.6462 165.898 74.4798 166.115C73.9951 166.733 73.4988 167.339 72.9963 167.942C72.8902 168.071 72.7842 168.199 72.6749 168.331C70.0818 171.458 67.3344 174.326 64.1184 176.82C63.8062 177.068 63.4941 177.317 63.182 177.565C57.0701 182.383 50.2349 186.042 42.91 188.658C42.7239 188.726 42.5379 188.794 42.3462 188.865C34.9123 191.592 26.6769 193.326 18.7375 193.358C18.4932 193.361 18.249 193.364 17.9973 193.367C17.5319 193.372 17.0664 193.368 16.6012 193.354C15.6164 193.364 15.0293 193.393 14.2589 194.043C13.8285 194.533 13.4383 195.025 13.0703 195.563C12.3466 195.213 11.7304 194.827 11.0974 194.33C10.8208 194.508 10.8208 194.508 10.5387 194.69C10.2958 194.846 10.0529 195.001 9.80271 195.162C9.56238 195.316 9.32206 195.471 9.07445 195.63C8.52399 195.97 7.98252 196.274 7.39827 196.549C7.47466 196.112 7.55189 195.676 7.62947 195.239C7.69384 194.874 7.69384 194.874 7.75952 194.502C7.89149 193.836 7.89149 193.836 8.1381 193.096C7.98796 193.078 7.83781 193.059 7.68311 193.04C2.17711 192.351 2.17711 192.351 0 191.617C0.0849913 190.654 0.399577 189.98 1.04532 189.255C1.95308 188.522 3.08052 188.227 4.17694 187.871C4.65726 187.709 5.13732 187.547 5.6171 187.383C5.84118 187.307 6.06525 187.232 6.29612 187.153C7.02293 186.888 7.6985 186.547 8.38471 186.191C8.54747 186.191 8.71023 186.191 8.87793 186.191C8.75077 186.044 8.62361 185.896 8.4926 185.744C8.31712 185.477 8.31712 185.477 8.1381 185.205C8.38471 184.465 8.38471 184.465 8.94825 184.177C9.17427 184.094 9.4003 184.011 9.63317 183.926C9.97316 183.798 9.97316 183.798 10.32 183.669C10.4952 183.606 10.6703 183.543 10.8508 183.479C9.63329 183.246 8.64875 183.254 7.42621 183.464C6.77566 183.482 6.44903 183.36 5.91862 182.986C5.73366 182.092 5.73366 182.092 5.67201 181.259C7.1186 180.653 8.56609 180.048 10.0185 179.456C10.215 179.375 10.4114 179.295 10.6138 179.212C11.0974 179.04 11.0974 179.04 11.5906 179.04C11.555 178.728 11.5194 178.416 11.4827 178.095C11.4365 177.685 11.3902 177.276 11.344 176.867C11.3205 176.661 11.297 176.455 11.2727 176.244C11.2505 176.046 11.2282 175.848 11.2053 175.644C11.1846 175.462 11.164 175.28 11.1427 175.092C11.0974 174.601 11.0974 174.601 11.0974 173.861C11.9112 173.942 12.725 174.024 13.5635 174.108C13.8567 173.168 14.1496 172.227 14.442 171.287C14.49 171.133 14.538 170.979 14.5874 170.82C15.2678 168.632 15.9406 166.442 16.6066 164.25C19.5021 154.726 22.4831 145.23 25.6936 135.806C25.7687 135.585 25.8437 135.365 25.9211 135.138C26.714 132.812 27.5247 130.496 28.4127 128.204C28.7439 127.382 28.7439 127.382 28.8533 126.512C27.7585 127.112 26.6642 127.713 25.5703 128.315C25.4084 128.404 25.2466 128.493 25.0798 128.585C22.8172 129.831 20.567 131.095 18.3413 132.406C17.0395 133.17 17.0395 133.17 16.7694 133.17C16.8941 131.063 17.2858 129.06 17.7559 127.005C17.9463 127.013 18.1368 127.021 18.3331 127.03C20.9511 127.003 22.4499 125.997 24.4914 124.524C24.7971 124.31 25.1033 124.098 25.4099 123.886C26.1517 123.37 26.8874 122.847 27.6202 122.32C24.5607 122.555 24.5607 122.555 21.8095 123.799C20.707 124.519 19.7746 124.957 18.4957 125.279C18.3329 125.36 18.1702 125.442 18.0025 125.526C18.0373 125.089 18.0735 124.652 18.1104 124.215C18.1304 123.972 18.1504 123.729 18.171 123.479C18.2703 122.631 18.3791 122.19 18.9889 121.58C18.6227 121.092 18.6227 121.092 18.2491 120.593C19.0435 118.644 20.7054 117.939 22.5031 117.095C22.952 116.882 23.4003 116.668 23.8479 116.452C24.1441 116.313 24.1441 116.313 24.4463 116.171C24.9478 115.941 24.9478 115.941 25.1541 115.415C25.0727 115.252 24.9914 115.089 24.9075 114.921C24.2126 114.711 23.5117 114.558 22.8036 114.398C22.6027 114.327 22.4018 114.255 22.1948 114.182C22.1134 113.937 22.0321 113.693 21.9482 113.442C21.7498 113.482 21.5515 113.523 21.3471 113.565C20.3061 113.711 19.298 113.709 18.2491 113.688C18.656 112.707 19.1117 112.057 19.8829 111.346C20.6833 110.582 20.8684 110.123 20.9618 109.003C21.1968 107.938 21.4223 107.474 22.3223 106.838C23.1566 106.367 24.0041 105.931 24.8613 105.504C25.1767 105.342 25.4919 105.18 25.8068 105.017C26.2847 104.77 26.7628 104.524 27.242 104.28C28.4031 103.687 29.5437 103.064 30.6797 102.425C43.7513 95.0973 58.9149 89.7667 73.7361 87.5478C74.0366 87.4997 74.0366 87.4997 74.3431 87.4507C80.0186 86.5634 86.6229 86.477 92.2318 87.7944ZM31.4889 109.167C30.8261 109.496 30.8261 109.496 29.8859 109.727C28.7752 110.097 28.11 110.822 27.3736 111.715C27.3736 111.797 27.3736 111.878 27.3736 111.962C30.2744 112.48 30.2744 112.48 32.9336 111.456C33.5004 111.016 34.0517 110.561 34.5954 110.093C35.305 109.506 36.0719 109.005 36.8372 108.494C37.3042 108.177 37.7684 107.856 38.2244 107.523C38.2244 107.442 38.2244 107.36 38.2244 107.277C35.7294 107.21 33.6643 108.005 31.4889 109.167ZM64.1492 112.332C63.9192 112.362 63.6891 112.393 63.4521 112.424C63.1267 112.482 63.1267 112.482 62.7948 112.54C62.6038 112.571 62.4127 112.602 62.2159 112.634C60.4777 113.604 59.6431 116.402 58.7932 118.108C58.6368 118.42 58.4804 118.733 58.3239 119.045C57.9958 119.701 57.6683 120.357 57.3414 121.013C56.9336 121.831 56.524 122.649 56.1139 123.466C53.9333 127.814 51.8081 132.185 49.815 136.623C49.7456 136.777 49.6761 136.93 49.6046 137.088C49.3904 137.564 49.1792 138.041 48.9688 138.518C48.8417 138.804 48.7147 139.09 48.5838 139.384C48.5018 139.612 48.4198 139.84 48.3354 140.076C48.4168 140.238 48.4981 140.401 48.582 140.569C65.1287 132.582 65.1287 132.582 76.0394 118.58C76.4054 117.008 76.4882 115.537 75.8015 114.058C74.3749 112.557 72.7682 111.989 70.7364 111.879C68.517 111.833 66.3426 111.991 64.1492 112.332ZM31.0727 118.374C30.9914 118.537 30.91 118.699 30.8261 118.867C31.6939 119.117 32.1634 119.229 33.0456 119.114C34.1985 118.474 35.22 117.712 36.2515 116.894C34.5728 116.338 32.4991 117.475 31.0727 118.374ZM41.1969 161.629C40.7581 161.715 40.3175 161.794 39.8744 161.854C39.3606 161.922 39.3606 161.922 38.7176 162.27C38.2803 162.923 38.0536 163.624 37.8083 164.367C37.6469 164.812 37.4837 165.256 37.3189 165.7C37.23 165.94 37.1412 166.18 37.0496 166.427C36.3708 168.154 35.5514 169.821 34.7592 171.497C34.6365 171.759 34.5139 172.02 34.3875 172.289C34.2223 172.637 34.2223 172.637 34.0538 172.992C33.8214 173.531 33.6584 174.028 33.5388 174.601C35.2027 174.486 36.7256 174.218 38.3169 173.722C38.5276 173.658 38.7383 173.593 38.9553 173.526C44.6899 171.718 51.8504 169.263 55.2404 163.966C55.5463 163.087 55.5639 162.652 55.2404 161.777C51.7463 158.904 45.2397 160.831 41.1969 161.629Z" fill="#0672B6"/>
<path d="M495.684 83.8457C494.463 85.921 494.463 85.921 493.218 88.0381C494.472 87.7859 494.472 87.7859 495.726 87.5289C496.624 87.3544 497.278 87.2794 498.15 87.5449C498.076 87.6973 498.002 87.8496 497.926 88.0066C497.007 89.9595 496.295 91.9612 495.607 94.003C495.494 94.3352 495.38 94.6674 495.267 94.9995C494.994 95.8023 494.722 96.6056 494.451 97.4092C494.114 97.3611 494.114 97.3611 493.771 97.312C491.705 97.0785 490.503 97.1146 488.856 98.3957C488.503 98.6466 488.151 98.8973 487.798 99.148C487.63 99.2719 487.463 99.3958 487.29 99.5234C486.608 100.019 485.903 100.462 485.187 100.908C484.974 101.044 484.76 101.179 484.539 101.319C484.392 101.412 484.245 101.506 484.093 101.602C486.385 101.626 487.937 101.272 489.94 100.234C491.204 99.5964 492.072 99.4578 493.464 99.6287C492.318 102.337 492.318 102.337 491.528 102.932C491.075 103.112 491.075 103.112 490.258 103.328C489.892 103.572 489.892 103.572 489.519 103.821C489.605 104.08 489.691 104.34 489.781 104.607C490.136 106.051 489.749 107.202 489.01 108.476C487.936 110.108 486.636 110.55 484.778 110.978C483.569 111.222 482.355 111.437 481.139 111.645C479.071 112.003 477.039 112.498 475.001 112.995C474.018 113.235 473.034 113.471 472.05 113.706C471.871 113.748 471.693 113.791 471.509 113.835C470.201 114.145 468.891 114.422 467.57 114.672C467.503 114.887 467.436 115.102 467.367 115.323C467.091 116.111 466.769 116.824 466.393 117.568C466.255 117.842 466.117 118.116 465.976 118.398C465.902 118.543 465.829 118.688 465.753 118.837C465.518 119.301 465.284 119.765 465.051 120.229C464.469 121.387 463.884 122.544 463.3 123.701C460.936 128.381 458.645 133.081 456.473 137.853C456.373 138.073 456.273 138.292 456.17 138.518C455.577 139.82 454.99 141.124 454.408 142.431C454.321 142.625 454.234 142.819 454.145 143.02C450.49 151.211 447.062 159.491 443.698 167.805C442.417 170.969 441.137 174.115 439.551 177.142C438.34 179.458 437.441 181.839 436.641 184.324C436.41 185.032 436.178 185.741 435.946 186.449C435.789 186.936 435.635 187.423 435.484 187.911C435.262 188.625 435.028 189.333 434.792 190.042C434.727 190.259 434.663 190.477 434.597 190.701C434.282 191.614 434.057 192.186 433.217 192.705C431.889 193.252 430.507 193.561 429.099 193.833C428.206 192.49 427.497 191.131 426.88 189.641C425.827 190.205 425.036 190.932 424.213 191.783C424.09 191.91 423.966 192.036 423.838 192.165C423.536 192.474 423.235 192.783 422.934 193.094C422.638 192.238 422.739 191.713 423.011 190.859C423.109 190.542 423.109 190.542 423.209 190.218C423.427 189.641 423.427 189.641 423.921 188.901C423.842 188.004 423.842 188.004 423.674 187.175C423.283 187.559 422.892 187.945 422.503 188.331C422.176 188.653 422.176 188.653 421.844 188.981C421.529 189.308 421.529 189.308 421.208 189.641C421.025 189.817 420.842 189.992 420.653 190.173C419.997 191.239 419.992 192.31 419.913 193.541C419.894 193.782 419.875 194.023 419.855 194.272C419.809 194.866 419.767 195.459 419.728 196.053C419.484 196.134 419.24 196.216 418.988 196.3C418.663 195.811 418.337 195.323 418.002 194.82C416.293 195.796 416.293 195.796 414.549 196.793C414.277 195.974 414.324 195.779 414.555 194.979C414.617 194.758 414.68 194.538 414.744 194.31C414.815 194.068 414.886 193.825 414.96 193.575C415.034 193.318 415.107 193.06 415.183 192.795C415.432 191.928 415.684 191.062 415.937 190.196C416.115 189.579 416.293 188.963 416.471 188.346C417.008 186.488 417.55 184.631 418.093 182.774C418.249 182.242 418.404 181.71 418.56 181.177C423.993 162.574 429.515 143.951 436.251 125.769C436.072 125.847 435.893 125.925 435.709 126.005C431.565 127.805 427.417 129.594 423.263 131.37C422.92 131.516 422.577 131.663 422.235 131.809C422.069 131.88 421.904 131.95 421.734 132.023C420.855 132.399 419.979 132.78 419.106 133.168C418.924 133.248 418.743 133.328 418.556 133.411C418.208 133.565 417.86 133.72 417.513 133.876C416.33 134.401 416.33 134.401 415.782 134.401C416.286 132.795 417.022 131.349 417.786 129.854C417.92 129.581 418.054 129.308 418.193 129.027C419.057 127.338 419.915 126.144 421.454 125.029C421.696 124.849 421.938 124.669 422.187 124.483C422.393 124.343 422.599 124.203 422.811 124.058C423.022 123.914 423.233 123.769 423.45 123.62C423.683 123.463 423.683 123.463 423.921 123.303C423.763 123.187 423.606 123.071 423.444 122.952C423.138 122.721 423.138 122.721 422.826 122.486C422.623 122.335 422.42 122.183 422.211 122.027C421.701 121.577 421.701 121.577 421.454 120.837C422.25 117.833 423.912 114.613 425.599 112.013C425.946 111.368 425.916 110.955 425.893 110.233C424.03 113.932 422.185 117.637 420.409 121.379C419.937 122.374 419.459 123.366 418.978 124.356C417.117 128.186 415.332 132.045 413.583 135.926C412.966 137.293 412.344 138.656 411.72 140.02C407.62 148.992 403.763 158.061 400.108 167.223C399.252 169.367 398.381 171.502 397.445 173.612C397.365 173.792 397.286 173.972 397.204 174.157C396.442 175.852 395.541 177.462 394.624 179.078C393.429 181.271 392.6 183.562 391.815 185.927C391.761 186.088 391.706 186.25 391.65 186.416C390.894 188.668 390.894 188.668 390.362 190.981C389.897 193.478 389.897 193.478 388.888 194.193C387.559 194.912 386.162 195.401 384.71 195.806C383.92 195.078 383.574 194.263 383.184 193.279C383.117 193.12 383.049 192.961 382.98 192.798C382.389 191.325 382.287 189.993 382.814 188.47C382.874 188.288 382.934 188.106 382.996 187.919C383.23 187.422 383.23 187.422 383.631 187.058C384.029 186.697 384.029 186.697 383.988 186.124C383.957 185.927 383.925 185.729 383.893 185.526C383.863 185.326 383.834 185.127 383.803 184.922C383.777 184.77 383.75 184.618 383.723 184.462C383.549 184.638 383.374 184.813 383.194 184.994C382.735 185.455 382.269 185.904 381.794 186.35C380.044 188.055 379.356 189.342 379.284 191.861C379.287 192.064 379.291 192.268 379.294 192.478C379.277 193.443 379.19 193.908 378.535 194.648C377.896 195.221 377.238 195.76 376.572 196.3C375.982 196.863 375.416 197.443 374.845 198.026C374.276 197.619 373.706 197.212 373.119 196.793C372.893 196.917 372.668 197.042 372.435 197.17C372.139 197.332 371.843 197.494 371.547 197.656C371.398 197.738 371.249 197.821 371.096 197.905C369.969 198.519 369.969 198.519 369.42 198.519C369.959 196.269 370.586 194.05 371.245 191.834C371.352 191.472 371.459 191.11 371.566 190.749C371.854 189.779 372.142 188.81 372.43 187.841C372.612 187.232 372.793 186.623 372.974 186.014C375.324 178.117 377.756 170.246 380.244 162.391C380.503 161.573 380.761 160.755 381.019 159.936C385.282 146.412 389.724 132.93 394.574 119.604C394.662 119.364 394.749 119.123 394.839 118.875C395.975 115.759 397.125 112.648 398.288 109.542C398.673 108.512 399.054 107.48 399.433 106.448C399.701 105.722 399.972 104.998 400.244 104.274C400.367 103.946 400.488 103.617 400.608 103.288C400.77 102.844 400.938 102.402 401.105 101.961C401.196 101.717 401.287 101.473 401.381 101.221C402.143 99.8836 403.735 99.5628 405.116 99.0912C405.325 99.0185 405.534 98.9459 405.749 98.871C406.416 98.6393 407.084 98.4096 407.752 98.1799C408.41 97.9522 409.068 97.7242 409.726 97.4961C410.154 97.3477 410.582 97.1998 411.011 97.0521C411.971 96.7208 412.93 96.3864 413.884 96.0382C414.044 95.98 414.203 95.9219 414.368 95.862C414.788 95.7083 415.207 95.5531 415.626 95.3977C416.276 95.1898 416.276 95.1898 417.015 95.1898C417.056 95.8583 417.085 96.5243 417.108 97.1935C417.12 97.381 417.133 97.5686 417.146 97.7618C417.183 99.1933 417.183 99.1933 416.696 99.7434C416.499 99.9055 416.499 99.9055 416.299 100.071C415.141 101.066 415.197 102.426 415.073 103.867C415.045 104.137 415.016 104.406 414.987 104.684C414.889 105.632 414.796 106.566 414.796 107.52C416.592 105.312 417.663 103.262 418.457 100.527C418.742 99.6287 418.742 99.6287 419.235 99.1355C419.221 98.905 419.208 98.6746 419.194 98.4371C419.235 97.6559 419.235 97.6559 419.731 97.0519C419.949 96.8697 420.167 96.6875 420.391 96.4999C420.713 96.2238 420.713 96.2238 421.041 95.9421C422.654 94.7061 424.382 94.159 426.294 93.5252C426.6 93.4206 426.906 93.316 427.221 93.2082C427.66 93.0618 427.66 93.0618 428.107 92.9125C428.374 92.8229 428.642 92.7334 428.917 92.6411C429.593 92.4771 429.593 92.4771 430.332 92.7237C430.312 92.9068 430.292 93.0899 430.271 93.2785C430.255 93.9873 430.255 93.9873 430.81 94.3575C431.631 95.3027 431.524 96.4417 431.565 97.6559C431.728 97.6559 431.891 97.6559 432.059 97.6559C431.706 98.8215 431.218 99.8774 430.654 100.952C430.567 101.12 430.48 101.288 430.391 101.46C430.115 101.991 429.839 102.521 429.562 103.05C429.374 103.412 429.186 103.774 428.998 104.135C428.54 105.017 428.08 105.899 427.62 106.78C429.236 106.262 430.814 105.673 432.391 105.045C432.895 104.846 433.4 104.647 433.904 104.447C434.168 104.343 434.432 104.238 434.704 104.131C452.737 97.0004 470.976 90.4113 489.61 85.0205C490.26 84.8317 490.909 84.6396 491.558 84.4475C491.961 84.3305 492.364 84.2137 492.767 84.0972C492.949 84.0426 493.131 83.988 493.318 83.9318C494.266 83.6619 494.7 83.5999 495.684 83.8457ZM473.474 100.476C473.26 100.604 473.047 100.731 472.827 100.862C472.037 101.338 472.037 101.338 471.269 101.848C471.269 101.93 471.269 102.011 471.269 102.095C472.865 102.215 474.006 102.081 475.438 101.356C475.955 101.108 475.955 101.108 476.88 100.877C477.828 100.567 478.267 100.127 478.914 99.3821C476.772 98.6681 475.313 99.325 473.474 100.476ZM475.955 104.808C475.955 104.889 475.955 104.97 475.955 105.054C477.348 104.906 478.584 104.542 479.901 104.068C479.901 103.824 479.901 103.579 479.901 103.328C478.325 103.079 477.189 103.927 475.955 104.808ZM408.631 105.794C408.253 106.229 407.884 106.672 407.521 107.119C407.32 107.366 407.119 107.612 406.912 107.865C406.106 108.897 406.093 109.732 406.026 111.004C406.015 111.19 406.005 111.376 405.994 111.567C405.968 112.027 405.943 112.486 405.918 112.946C406.111 112.753 406.303 112.56 406.502 112.361C406.891 111.973 407.281 111.586 407.675 111.204C408.285 110.249 408.469 109.298 408.702 108.196C408.877 107.52 408.877 107.52 409.371 106.78C409.208 106.455 409.045 106.129 408.877 105.794C408.796 105.794 408.715 105.794 408.631 105.794ZM407.382 119.342C406.761 120.325 406.708 121.174 406.658 122.317C407.831 121.427 408.041 120.227 408.384 118.864C407.835 118.808 407.835 118.808 407.382 119.342ZM432.059 172.872C431.88 173.077 431.88 173.077 431.698 173.286C431.465 173.554 431.465 173.554 431.226 173.827C431.072 174.005 430.917 174.182 430.758 174.365C430.462 174.698 430.155 175.022 429.839 175.338C429.555 176.898 429.566 178.441 429.593 180.023C431.274 178.102 432.288 175.647 432.552 173.118C432.389 173.037 432.226 172.955 432.059 172.872ZM389.534 175.831C388.503 176.881 388.041 177.583 387.916 179.037C387.89 179.295 387.863 179.552 387.837 179.818C387.77 180.544 387.715 181.269 387.669 181.996C389.217 180.471 389.757 179.338 390.206 177.214C390.382 176.571 390.382 176.571 390.875 176.078C390.916 175.44 390.916 175.44 390.875 174.845C390.351 174.845 389.883 175.501 389.534 175.831ZM424.044 179.561C422.915 180.715 422.933 181.645 422.919 183.198C422.923 183.538 422.927 183.877 422.934 184.216C424.148 183.264 424.412 182.358 424.74 180.868C424.907 180.27 424.907 180.27 425.4 179.777C425.322 179.257 425.322 179.257 425.154 178.79C424.682 178.79 424.367 179.255 424.044 179.561ZM429.346 180.023C429.593 180.517 429.593 180.517 429.593 180.517L429.346 180.023Z" fill="#0672B6"/>
<path d="M583.231 0C583.091 1.04077 582.846 1.90608 582.421 2.8649C582.255 3.24161 582.255 3.24161 582.086 3.62592C581.913 4.01312 581.913 4.01312 581.736 4.40814C581.619 4.67199 581.503 4.93584 581.383 5.20769C581.096 5.85637 580.808 6.50431 580.518 7.15166C580.699 7.12178 580.879 7.0919 581.065 7.06111C581.884 6.92587 582.704 6.79215 583.524 6.65845C583.808 6.6114 584.091 6.56435 584.384 6.51588C584.795 6.44912 584.795 6.44912 585.215 6.38101C585.466 6.33968 585.718 6.29836 585.978 6.25578C586.634 6.1716 587.256 6.14825 587.917 6.16523C587.53 7.55609 586.853 8.70638 586.129 9.94143C585.859 10.4072 585.59 10.8731 585.32 11.3392C585.18 11.5825 585.039 11.8258 584.894 12.0765C584.181 13.3166 583.482 14.565 582.784 15.8138C582.641 16.0701 582.498 16.3264 582.35 16.5905C581.903 17.3898 581.457 18.1893 581.012 18.9889C580.783 19.3984 580.783 19.3984 580.55 19.8163C578.511 23.4683 576.495 27.1315 574.512 30.8136C574.09 31.5966 573.667 32.3789 573.243 33.1612C571.597 36.2065 569.974 39.2626 568.379 42.3349C567.869 43.3156 567.356 44.2938 566.838 45.2704C561.589 55.1918 556.534 65.2325 551.912 75.4624C551.833 75.6358 551.755 75.8092 551.674 75.9879C549.925 79.8544 548.178 83.7213 546.536 87.6346C544.72 91.9583 542.649 96.1203 540.229 100.139C536.601 106.211 534.625 113.396 533.29 120.3C533.169 120.838 533.169 120.838 532.923 121.332C532.396 121.499 531.861 121.639 531.324 121.766C531.082 121.823 531.082 121.823 530.836 121.882C530.495 121.962 530.153 122.042 529.811 122.12C529.29 122.24 528.77 122.365 528.251 122.49C527.919 122.568 527.587 122.645 527.255 122.722C526.953 122.792 526.651 122.863 526.34 122.935C525.266 123.097 524.613 123.034 523.718 122.414C522.035 120.889 520.689 119.216 519.359 117.386C519.129 117.562 518.898 117.739 518.661 117.921C516.623 119.47 514.553 120.953 512.427 122.38C510.943 123.383 509.549 124.461 508.179 125.615C507.522 126.017 507.522 126.017 506.88 125.998C506.099 125.698 505.497 125.265 504.825 124.775C504.019 124.399 503.339 124.699 502.521 124.971C502.334 125.042 502.147 125.113 501.955 125.186C501.75 125.263 501.545 125.34 501.333 125.42C501.017 125.54 501.017 125.54 500.694 125.663C500.272 125.823 499.85 125.983 499.427 126.142C499.148 126.248 499.148 126.248 498.864 126.356C498.398 126.51 498.398 126.51 497.904 126.51C498.048 125.215 498.258 123.987 498.576 122.72C498.619 122.549 498.661 122.378 498.706 122.201C498.847 121.634 498.991 121.067 499.134 120.5C499.237 120.094 499.339 119.687 499.441 119.28C499.717 118.184 499.995 117.087 500.273 115.991C500.448 115.302 500.623 114.613 500.798 113.924C504.374 99.8278 508.232 85.8157 512.438 71.8938C512.696 71.0404 512.953 70.1867 513.209 69.333C518.316 52.3898 523.972 35.5932 530.464 19.1287C530.947 17.9032 531.422 16.675 531.889 15.4433C532.173 14.6957 532.462 13.9501 532.753 13.205C532.885 12.8633 533.015 12.5208 533.142 12.1775C533.316 11.7122 533.498 11.2501 533.68 10.7882C533.779 10.5305 533.877 10.2728 533.979 10.0074C534.88 8.65354 536.708 8.44878 538.213 8.11883C538.406 8.07551 538.599 8.03218 538.798 7.98754C539.202 7.8972 539.607 7.80772 540.011 7.71906C540.632 7.58274 541.251 7.44251 541.87 7.30194C542.264 7.21437 542.659 7.12702 543.053 7.03992C543.238 6.99781 543.423 6.95571 543.614 6.91233C544.446 6.73273 544.923 6.63069 545.746 6.90506C545.177 10.4858 544.607 14.0666 544.02 17.7559C545.119 16.4131 545.119 16.4131 546.24 15.0432C546.651 14.5878 546.651 14.5878 547.071 14.1232C548.985 11.9932 550.103 9.85704 551.046 7.14811C551.135 6.90355 551.224 6.65899 551.316 6.40702C551.39 6.18805 551.464 5.96908 551.54 5.74348C552.338 4.53054 554.035 4.3039 555.371 3.9891C555.527 3.95183 555.684 3.91456 555.845 3.87616C556.337 3.75918 556.829 3.64435 557.322 3.52959C557.658 3.44994 557.995 3.37015 558.332 3.29021C559.151 3.09632 559.97 2.90386 560.79 2.7127C560.811 2.85953 560.832 3.00636 560.854 3.15763C560.95 3.82121 561.047 4.48458 561.144 5.14797C561.177 5.37907 561.211 5.61018 561.245 5.8483C561.294 6.1797 561.294 6.1797 561.344 6.5178C561.373 6.72185 561.403 6.9259 561.434 7.13613C561.508 7.65802 561.508 7.65802 561.776 8.1381C562.021 7.98583 562.267 7.83356 562.52 7.67667C568.235 4.1871 576.397 0 583.231 0ZM549.011 20.7258C547.49 22.2974 546.908 23.4566 546.733 25.6473C546.668 26.0161 546.599 26.3841 546.527 26.7513C546.05 28.6753 546.05 28.6753 546.24 30.5795C548.193 28.4703 549.715 26.3619 550.879 23.7207C550.984 23.4886 551.089 23.2565 551.197 23.0174C551.877 21.3904 552.04 20.0042 551.912 18.2491C551.005 18.2491 549.627 20.1178 549.011 20.7258ZM548.753 37.6151C546.768 39.7099 546.523 42.4977 546.469 45.2836C546.475 45.4769 546.48 45.6702 546.486 45.8693C546.913 45.4685 547.318 45.0618 547.719 44.6363C547.859 44.4891 547.998 44.3419 548.142 44.1902C549.265 42.8904 549.8 41.6143 550.263 39.9855C550.52 39.0967 550.769 38.6163 551.418 37.9778C551.508 37.4147 551.508 37.4147 551.465 36.8218C551.458 36.6225 551.451 36.4232 551.444 36.2178C551.432 35.9904 551.432 35.9904 551.418 35.7583C550.377 35.7583 549.479 36.9238 548.753 37.6151Z" fill="#0672B6"/>
<path d="M313.441 12.0838C315.301 12.065 317.162 12.0521 319.022 12.0432C319.655 12.0395 320.287 12.0344 320.919 12.028C321.83 12.019 322.741 12.0148 323.652 12.0116C323.933 12.0078 324.214 12.0039 324.504 12C326.402 11.9996 327.904 12.1287 329.409 13.3939C330.799 15.0548 331.187 16.2914 331.54 18.4263C331.591 18.7161 331.641 19.0058 331.694 19.3044C331.832 20.0999 331.967 20.8959 332.099 21.6923C332.184 22.1995 332.27 22.7065 332.356 23.2135C332.778 25.7087 333.191 28.2056 333.601 30.7028C333.812 31.9871 334.024 33.2714 334.237 34.5555C334.32 35.0624 334.403 35.5694 334.486 36.0764C334.536 36.3807 334.587 36.685 334.639 36.9986C334.704 37.3997 334.704 37.3997 334.772 37.8089C334.885 38.4922 334.885 38.4922 335.143 39.2108C335.193 39.0863 335.244 38.9617 335.297 38.8334C335.454 38.4479 335.611 38.0625 335.769 37.6771C335.959 37.2108 336.149 36.7446 336.34 36.2784C336.882 34.9496 337.424 33.6209 337.967 32.2921C339.017 29.7191 340.067 27.146 341.117 24.5727C341.562 23.4819 342.007 22.3911 342.452 21.3003C342.664 20.781 342.875 20.2616 343.087 19.7421C343.385 19.0116 343.683 18.2811 343.981 17.5506C344.067 17.3399 344.153 17.1292 344.241 16.9121C344.9 15.2992 345.57 13.692 346.24 12.0838C351.855 12.0838 357.471 12.0838 363.256 12.0838C362.385 14.4059 361.516 16.7149 360.575 19.0072C360.467 19.2723 360.359 19.5374 360.247 19.8105C359.899 20.662 359.551 21.5132 359.202 22.3643C358.835 23.264 358.467 24.1637 358.1 25.0634C357.856 25.6602 357.613 26.257 357.369 26.8538C356.398 29.2293 355.433 31.607 354.471 33.9858C352.943 37.7591 351.405 41.528 349.866 45.2964C348.583 48.436 347.304 51.5767 346.031 54.7205C344.726 57.945 343.417 61.1677 342.1 64.3873C341.922 64.8219 341.745 65.2566 341.568 65.6913C341.323 66.2911 341.078 66.8906 340.832 67.49C340.759 67.6701 340.685 67.8502 340.61 68.0357C340.103 69.2689 340.103 69.2689 339.828 69.5437C339.421 69.5707 339.013 69.5805 338.605 69.5835C338.344 69.5859 338.083 69.5882 337.814 69.5907C337.53 69.5917 337.245 69.5928 336.952 69.5938C336.661 69.5952 336.369 69.5966 336.069 69.5981C335.451 69.6004 334.833 69.602 334.215 69.603C333.271 69.6054 332.328 69.613 331.385 69.6208C330.785 69.6224 330.184 69.6237 329.584 69.6247C329.303 69.6277 329.021 69.6308 328.731 69.6339C326.45 69.6275 324.972 69.2379 323.305 67.5709C322.466 66.2496 322.11 64.9125 321.867 63.3827C321.831 63.1707 321.795 62.9588 321.758 62.7404C321.64 62.0461 321.527 61.3512 321.413 60.6562C321.332 60.1704 321.251 59.6847 321.169 59.199C320.999 58.184 320.831 57.1688 320.664 56.1532C320.451 54.853 320.234 53.5535 320.016 52.2542C319.847 51.2524 319.681 50.2504 319.514 49.2483C319.435 48.769 319.355 48.2898 319.275 47.8107C319.163 47.141 319.053 46.4712 318.944 45.8012C318.911 45.6044 318.878 45.4076 318.844 45.2048C318.678 44.1811 318.585 43.2115 318.62 42.1701C318.457 42.1701 318.294 42.1701 318.127 42.1701C318.1 42.3387 318.072 42.5073 318.045 42.6809C317.851 43.5309 317.55 44.2876 317.22 45.0948C317.118 45.3467 317.118 45.3467 317.013 45.6037C316.784 46.1653 316.554 46.7263 316.323 47.2873C316.16 47.6867 315.997 48.0861 315.834 48.4856C315.478 49.3578 315.122 50.2297 314.765 51.1014C314.035 52.8827 313.308 54.6648 312.58 56.4469C312.05 57.7459 311.52 59.0448 310.989 60.3433C310.888 60.5897 310.787 60.836 310.683 61.0898C310.499 61.5411 310.314 61.9923 310.13 62.4435C309.165 64.805 308.223 67.175 307.276 69.5437C301.661 69.5437 296.045 69.5437 290.26 69.5437C291.092 67.0467 291.092 67.0467 291.428 66.2196C291.504 66.0302 291.581 65.8408 291.659 65.6456C291.741 65.4458 291.822 65.2461 291.906 65.0402C291.994 64.8224 292.082 64.6046 292.173 64.3802C292.465 63.6607 292.757 62.9416 293.05 62.2225C293.257 61.7108 293.465 61.199 293.672 60.6871C295.495 56.1922 297.326 51.7004 299.158 47.2089C300.439 44.0665 301.718 40.923 302.991 37.7774C304.517 34.0074 306.054 30.2417 307.592 26.4765C309.55 21.6824 311.499 16.8844 313.441 12.0838Z" fill="#FEFEFE"/>
<path d="M283.558 11.2656C284.306 11.2663 285.054 11.2605 285.801 11.2543C290.768 11.238 296.035 11.7138 299.868 15.242C301.768 17.2388 302.386 19.6255 302.404 22.3175C302.412 22.5912 302.412 22.5912 302.42 22.8705C302.444 26.4772 300.791 29.7614 299.445 33.0296C299.231 33.5519 299.018 34.0744 298.805 34.5969C298.376 35.6472 297.947 36.6971 297.516 37.7467C297 39.0072 296.486 40.2689 295.976 41.5318C295.868 41.7992 295.868 41.7992 295.758 42.072C295.614 42.4264 295.471 42.7809 295.328 43.1354C293.485 47.693 291.626 52.2443 289.771 56.7967C288.04 61.0443 286.312 65.2932 284.587 69.5432C278.971 69.5432 273.356 69.5432 267.571 69.5432C267.743 68.506 267.882 67.7923 268.253 66.8542C268.386 66.5137 268.386 66.5137 268.522 66.1663C268.618 65.9258 268.714 65.6853 268.812 65.4375C268.91 65.1878 269.009 64.9381 269.11 64.6808C269.423 63.8864 269.737 63.0927 270.052 62.299C270.265 61.7593 270.478 61.2195 270.69 60.6797C271.21 59.3589 271.733 58.0393 272.256 56.7195C270.059 56.6381 267.862 56.5567 265.598 56.4729C265.354 57.2867 265.109 58.1005 264.858 58.939C264.71 59.3507 264.557 59.7605 264.393 60.1658C264.31 60.3722 264.227 60.5786 264.141 60.7912C264.054 61.0043 263.967 61.2173 263.877 61.4368C263.786 61.6627 263.694 61.8885 263.6 62.1212C263.409 62.5932 263.217 63.0651 263.024 63.5367C262.729 64.2618 262.435 64.9876 262.141 65.7135C261.955 66.1735 261.768 66.6335 261.581 67.0934C261.493 67.311 261.404 67.5285 261.314 67.7527C261.232 67.9521 261.151 68.1515 261.067 68.3569C260.959 68.6209 260.959 68.6209 260.849 68.8903C260.665 69.2966 260.665 69.2966 260.419 69.5432C259.882 69.5664 259.344 69.5721 258.806 69.5712C258.638 69.5712 258.469 69.5712 258.296 69.5713C257.737 69.5711 257.178 69.5692 256.619 69.5672C256.232 69.5668 255.845 69.5664 255.459 69.5662C254.439 69.5652 253.419 69.5628 252.4 69.5601C251.36 69.5576 250.32 69.5564 249.281 69.5552C247.239 69.5526 245.198 69.5483 243.156 69.5432C243.286 68.6611 243.44 67.8643 243.782 67.0406C243.899 66.7546 243.899 66.7546 244.019 66.4628C244.105 66.257 244.192 66.0512 244.28 65.8392C244.372 65.6167 244.464 65.3942 244.558 65.1649C244.759 64.6775 244.961 64.1904 245.163 63.7035C245.723 62.3553 246.277 61.005 246.831 59.6547C246.951 59.3644 247.07 59.074 247.193 58.7749C248.136 56.4765 249.064 54.1723 249.985 51.8653C250.055 51.6909 250.125 51.5165 250.196 51.3368C250.82 49.7755 251.442 48.2138 252.064 46.6518C252.452 45.6778 252.84 44.7039 253.229 43.7301C253.292 43.572 253.355 43.4138 253.42 43.2509C254.471 40.6185 255.55 37.998 256.638 35.3807C257.429 33.4763 258.205 31.5668 258.968 29.6512C259.066 29.4052 259.165 29.1592 259.266 28.9057C259.659 27.9219 260.051 26.9381 260.441 25.953C260.734 25.2121 261.03 24.4723 261.326 23.7326C261.412 23.5143 261.497 23.2959 261.586 23.0709C263.392 18.5877 266.295 14.9365 270.791 13.0092C272.218 12.4543 273.711 12.1104 275.215 11.8366C275.559 11.771 275.559 11.771 275.909 11.7041C278.455 11.2753 280.982 11.26 283.558 11.2656ZM277.32 28.252C276.602 29.3911 276.12 30.6289 275.616 31.8736C275.501 32.1533 275.385 32.4331 275.266 32.7213C274.917 33.5677 274.572 34.4158 274.229 35.2645C274.125 35.5203 274.021 35.7761 273.913 36.0396C272.835 38.1934 272.835 38.1934 272.256 40.4433C274.372 40.4433 276.488 40.4433 278.668 40.4433C279.451 38.8965 279.451 38.8965 280.133 37.323C280.212 37.1214 280.292 36.9197 280.374 36.712C280.456 36.501 280.538 36.2901 280.623 36.0727C280.709 35.8497 280.796 35.6267 280.885 35.3969C281.067 34.9286 281.248 34.46 281.428 33.9912C281.613 33.5134 281.799 33.0363 281.987 32.5599C282.261 31.8673 282.529 31.1729 282.796 30.4778C282.88 30.2663 282.965 30.0548 283.052 29.837C283.523 28.5891 283.707 27.72 283.354 26.3866C282.77 25.6629 282.369 25.6471 281.442 25.5234C279.566 25.6071 278.371 26.8085 277.32 28.252Z" fill="#FEFEFE"/>
<path d="M474.23 12.0821C477.377 12.0649 480.524 12.0518 483.671 12.0437C485.133 12.0399 486.595 12.0347 488.057 12.0263C489.47 12.0182 490.884 12.0138 492.297 12.0119C492.833 12.0105 493.37 12.0079 493.906 12.0039C498.91 11.9678 504.173 12.1094 508.015 15.7812C510.465 18.3919 511.1 21.2288 511.042 24.7083C510.868 29.0474 508.786 33.2244 506.042 36.4964C505.815 36.7834 505.815 36.7834 505.584 37.0763C502.973 40.234 499.556 42.1242 495.931 43.8947C496.077 43.9786 496.223 44.0625 496.373 44.149C498.09 45.2021 499.002 46.2358 499.656 48.1419C499.902 49.1774 499.968 50.1106 499.969 51.1696C499.975 51.3426 499.981 51.5155 499.988 51.6937C500.01 55.829 497.887 59.8679 496.363 63.608C496.129 64.1851 495.896 64.7623 495.663 65.3395C495.097 66.7413 494.529 68.142 493.958 69.542C491.962 69.5649 489.967 69.5824 487.971 69.5931C487.044 69.5983 486.117 69.6052 485.19 69.6164C484.295 69.6272 483.399 69.6331 482.504 69.6356C482.163 69.6374 481.822 69.641 481.482 69.6463C478.14 69.6967 478.14 69.6967 476.696 68.5556C476.188 67.5405 476.568 66.2473 476.897 65.2049C477.16 64.5084 477.44 63.821 477.727 63.134C477.83 62.8828 477.932 62.6316 478.038 62.3728C478.364 61.5761 478.693 60.781 479.023 59.9859C479.244 59.4482 479.464 58.9103 479.684 58.3724C480.169 57.1891 480.656 56.0069 481.146 54.8256C481.223 54.6364 481.301 54.4472 481.381 54.2522C481.47 54.0399 481.559 53.8276 481.651 53.6089C481.939 52.8491 481.992 52.3461 481.874 51.5395C481.376 50.875 480.977 50.3893 480.147 50.1845C479.585 50.1303 479.033 50.1104 478.468 50.1061C478.274 50.0999 478.079 50.0937 477.879 50.0873C477.403 50.0729 476.926 50.0657 476.449 50.0599C476.413 50.1934 476.378 50.3269 476.341 50.4644C475.768 52.4887 474.98 54.4181 474.189 56.3638C474.041 56.7295 473.894 57.0953 473.746 57.4611C473.361 58.4164 472.973 59.3712 472.586 60.3259C472.269 61.108 471.953 61.8906 471.637 62.6731C471.26 63.6065 470.883 64.5398 470.505 65.473C470.433 65.6509 470.361 65.8288 470.287 66.0121C470.085 66.5132 469.881 67.0142 469.678 67.5152C469.563 67.8002 469.447 68.0852 469.328 68.3788C469.166 68.7717 468.994 69.1616 468.804 69.542C463.026 69.542 457.248 69.542 451.295 69.542C452.127 67.045 452.127 67.045 452.539 66.0178C452.634 65.7812 452.728 65.5446 452.825 65.3008C452.98 64.9177 452.98 64.9177 453.137 64.527C453.249 64.2463 453.361 63.9657 453.477 63.6765C453.792 62.8907 454.107 62.105 454.423 61.3195C454.696 60.6393 454.969 59.9588 455.241 59.2784C456.12 57.0853 457.001 54.8927 457.881 52.7003C458.381 51.4571 458.88 50.2139 459.379 48.9706C460.861 45.2799 462.343 41.5894 463.826 37.899C463.992 37.4852 463.992 37.4852 464.162 37.063C467.508 28.7323 470.865 20.4056 474.23 12.0821ZM486.56 25.6456C485.685 27.3186 484.976 29.0396 484.279 30.7935C484.166 31.0746 484.053 31.3556 483.936 31.6451C483.829 31.9128 483.722 32.1805 483.612 32.4562C483.515 32.6994 483.418 32.9425 483.318 33.193C483.08 33.7566 483.08 33.7566 483.107 34.2769C486.175 34.5257 486.175 34.5257 488.856 33.2009C490.424 31.6827 491.62 29.5994 491.739 27.3718C491.374 26.2942 491.374 26.2942 490.506 25.6456C489.836 25.6279 489.172 25.6226 488.502 25.6302C488.223 25.6318 488.223 25.6318 487.939 25.6335C487.479 25.6364 487.02 25.6409 486.56 25.6456Z" fill="#FEFEFE"/>
<path d="M188.773 11.0661C194.417 10.9677 200.381 11.4315 204.685 15.4896C207.391 18.4493 208.032 22.2809 207.87 26.1521C207.747 28.008 207.39 29.772 206.86 31.5481C206.807 31.7286 206.753 31.9091 206.698 32.0951C206.087 34.1055 205.335 36.0557 204.562 38.0081C204.41 38.3957 204.258 38.7833 204.105 39.171C202.696 42.7493 201.22 46.2985 199.708 49.8346C199.502 50.3192 199.296 50.8042 199.091 51.2894C195.007 60.9421 195.007 60.9421 192.108 64.6111C191.834 64.9925 191.834 64.9925 191.553 65.3817C188.333 68.7485 184.305 70.1466 179.738 70.3112C178.821 70.3278 177.904 70.3366 176.987 70.3418C176.82 70.3428 176.653 70.3438 176.48 70.3449C175.595 70.35 174.709 70.3535 173.824 70.3559C173.1 70.358 172.377 70.3632 171.654 70.371C160.722 70.4872 160.722 70.4872 156.781 66.8171C154.866 64.6881 154.246 62.0036 154.254 59.2165C154.247 58.9952 154.24 58.774 154.232 58.546C154.218 53.3596 156.805 48.3458 158.723 43.6336C159.105 42.6947 159.482 41.7544 159.861 40.8143C161.214 37.4558 162.581 34.1031 163.961 30.7556C164.144 30.3105 164.327 29.8653 164.51 29.42C167.427 22.3696 171.397 16.0838 178.68 12.9366C181.968 11.5915 185.249 11.1928 188.773 11.0661ZM183.477 27.6197C183.14 28.2733 183.14 28.2733 182.863 28.9832C182.696 29.3904 182.696 29.3904 182.526 29.8058C182.408 30.1013 182.289 30.3969 182.167 30.7014C182.038 31.0176 181.909 31.3338 181.78 31.6499C181.43 32.5092 181.083 33.3695 180.736 34.2299C180.367 35.1452 179.994 36.0593 179.623 36.9736C178.843 38.8926 178.067 40.8132 177.293 42.7344C176.893 43.7265 176.492 44.718 176.091 45.7095C175.776 46.4885 175.462 47.2678 175.148 48.0472C175 48.4131 174.852 48.7789 174.704 49.1446C174.031 50.8065 173.367 52.472 172.76 54.1595C172.68 54.3816 172.599 54.6037 172.516 54.8326C172.351 55.6232 172.424 56.1873 172.626 56.9662C173.192 57.5142 173.592 57.6986 174.382 57.7205C175.571 57.6262 176.573 57.4203 177.558 56.7196C178.814 55.1671 179.547 53.4184 180.258 51.5706C180.37 51.2881 180.481 51.0055 180.596 50.7144C180.895 49.9516 181.193 49.1879 181.489 48.4237C181.799 47.6262 182.112 46.8298 182.424 46.0333C182.807 45.0556 183.19 44.0779 183.572 43.0996C184.411 40.9521 185.263 38.8104 186.124 36.672C186.449 35.8638 186.773 35.0555 187.097 34.2471C187.303 33.7358 187.509 33.2248 187.717 32.7141C188.003 32.0071 188.287 31.299 188.57 30.5906C188.654 30.3847 188.739 30.1788 188.826 29.9667C189.246 28.9065 189.54 28.0403 189.395 26.8799C188.965 26.1201 188.965 26.1201 188.162 25.6468C185.992 25.2696 184.765 25.88 183.477 27.6197Z" fill="#FEFEFE"/>
<path d="M238.471 11.0974C238.636 11.1005 238.801 11.1036 238.971 11.1068C243.408 11.2096 248.301 11.8539 251.68 15.0123C254.547 18.1853 254.901 21.9062 254.782 25.9953C254.646 28.4865 254.292 31.3146 252.435 33.1227C250.055 34.6525 247.932 34.5605 245.177 34.5494C244.847 34.5489 244.518 34.5485 244.189 34.5483C243.327 34.5474 242.466 34.5449 241.604 34.5422C240.723 34.5397 239.842 34.5385 238.961 34.5373C237.236 34.5347 235.51 34.5305 233.785 34.5253C233.9 34.1751 234.015 33.8252 234.13 33.4753C234.195 33.2804 234.259 33.0855 234.325 32.8847C234.505 32.3629 234.704 31.8568 234.921 31.3492C234.985 31.1984 235.05 31.0475 235.116 30.8921C235.247 30.5894 235.38 30.2875 235.515 29.9866C236.017 28.7956 236.129 27.9023 236.005 26.6338C235.756 26.1178 235.756 26.1178 235.265 25.8939C234.632 25.7765 234.632 25.7765 233.939 25.8015C233.709 25.7996 233.478 25.7977 233.24 25.7957C232.401 25.9155 232.001 26.1265 231.319 26.6338C230.957 27.2052 230.666 27.731 230.383 28.3388C230.299 28.5123 230.216 28.6857 230.13 28.8644C229.087 31.0675 228.202 33.3363 227.312 35.6042C227.025 36.3297 226.738 37.0551 226.451 37.7805C226.25 38.2871 226.05 38.7937 225.85 39.3005C225.09 41.2236 224.317 43.1411 223.539 45.0572C223.201 45.8934 222.863 46.7296 222.525 47.5658C222.306 48.1058 222.087 48.6455 221.867 49.1849C221.558 49.9423 221.252 50.7007 220.946 51.4594C220.809 51.7921 220.809 51.7921 220.67 52.1314C220.116 53.516 219.556 54.9701 219.482 56.4735C219.915 57.3034 219.915 57.3034 220.854 57.4291C222.061 57.5347 223.093 57.2703 224.168 56.7201C224.775 56.1763 224.775 56.1763 225.154 55.487C225.368 55.1437 225.368 55.1437 225.586 54.7935C226.091 53.5051 226.012 52.3798 225.647 51.0789C224.974 48.5641 225.653 46.6029 226.618 44.2509C226.734 43.9583 226.849 43.6657 226.968 43.3642C227.817 41.2333 227.817 41.2333 228.113 40.9371C228.789 40.9136 229.458 40.9061 230.133 40.9091C230.345 40.9091 230.557 40.909 230.775 40.909C231.478 40.9092 232.181 40.9111 232.885 40.913C233.371 40.9135 233.857 40.9138 234.343 40.9141C235.626 40.915 236.908 40.9174 238.19 40.9202C239.498 40.9227 240.805 40.9238 242.113 40.9251C244.68 40.9277 247.247 40.9319 249.815 40.9371C249.677 41.8951 249.48 42.7457 249.124 43.6451C249.032 43.8797 248.94 44.1143 248.845 44.3561C248.744 44.6091 248.643 44.8621 248.539 45.1227C248.433 45.392 248.327 45.6613 248.218 45.9388C247.868 46.8256 247.516 47.7115 247.164 48.5974C246.92 49.2122 246.676 49.827 246.433 50.4418C246.308 50.7558 246.184 51.0698 246.059 51.3839C245.997 51.5408 245.935 51.6977 245.871 51.8594C245.68 52.3413 245.489 52.8231 245.297 53.3049C244.471 55.3875 243.658 57.475 242.853 59.566C242.447 60.6202 242.037 61.6731 241.627 62.7262C241.404 63.3041 241.182 63.8825 240.961 64.4615C240.654 65.2678 240.341 66.0717 240.027 66.8754C239.937 67.1149 239.847 67.3544 239.755 67.6012C239.669 67.8188 239.582 68.0364 239.493 68.2605C239.384 68.5447 239.384 68.5447 239.272 68.8346C238.845 69.4762 238.466 69.5818 237.731 69.7904C237.04 69.8902 237.04 69.8902 236.272 69.9432C235.834 69.9735 235.834 69.9735 235.387 70.0045C235.069 70.0235 234.751 70.0425 234.424 70.062C234.258 70.0723 234.093 70.0826 233.922 70.0931C229.892 70.339 225.861 70.376 221.824 70.375C220.8 70.3749 219.777 70.3818 218.753 70.3902C217.946 70.3957 217.139 70.3966 216.331 70.3964C215.954 70.397 215.577 70.3991 215.199 70.403C211.231 70.4401 207.217 69.8634 204.155 67.0902C202.048 64.8232 201.265 61.9711 201.125 58.9087C201.319 54.1247 203.158 49.7532 204.932 45.3761C205.022 45.153 205.112 44.93 205.205 44.7001C206.461 41.5963 207.728 38.497 209 35.4002C209.58 33.9877 210.156 32.5738 210.724 31.1565C213.791 23.516 217.569 16.3799 225.536 12.9372C229.715 11.2277 234.005 10.9991 238.471 11.0974Z" fill="#FEFEFE"/>
<path d="M526.264 146.238C526.543 147.197 526.435 147.834 526.22 148.814C526.12 149.273 526.12 149.273 526.019 149.742C525.965 149.98 525.965 149.98 525.911 150.222C525.802 150.708 525.696 151.194 525.591 151.68C525.07 154.052 525.07 154.052 524.785 154.623C524.525 154.592 524.266 154.561 523.999 154.529C522.369 154.534 521.011 155.402 519.598 156.133C519.292 156.289 518.985 156.443 518.678 156.598C517.875 157.003 517.074 157.413 516.275 157.824C515.456 158.243 514.635 158.658 513.814 159.074C512.208 159.887 510.604 160.706 509.002 161.528C514.64 161.762 514.64 161.762 520.022 160.295C520.598 160.064 521.175 159.832 521.751 159.601C521.992 159.498 522.234 159.395 522.482 159.288C523.058 159.062 523.058 159.062 523.552 159.062C522.797 163.984 522.797 163.984 521.119 165.34C520.945 165.465 520.771 165.591 520.592 165.72C520.266 166 519.943 166.283 519.621 166.568C519.38 166.775 519.38 166.775 519.135 166.986C518.182 167.837 517.295 168.755 516.4 169.666C516.237 169.829 516.074 169.992 515.907 170.159C516.415 170.674 516.923 171.188 517.433 171.701C517.575 171.845 517.718 171.99 517.865 172.139C518.005 172.28 518.146 172.422 518.291 172.568C518.429 172.708 518.567 172.848 518.709 172.992C519.141 173.415 519.141 173.415 519.85 173.824C520.346 174.352 520.346 174.352 520.385 174.806C520.328 175.406 520.221 175.981 520.099 176.571C520.061 176.796 520.022 177.02 519.982 177.251C519.855 177.968 519.71 178.679 519.56 179.392C519.514 179.636 519.469 179.881 519.422 180.133C519.373 180.366 519.323 180.599 519.272 180.84C519.229 181.05 519.187 181.261 519.143 181.478C518.866 181.997 518.866 181.997 518.297 182.236C517.004 182.596 515.697 182.855 514.381 183.117C514.077 183.178 513.774 183.239 513.461 183.302C512.626 183.471 511.79 183.638 510.955 183.805C510.065 183.982 509.175 184.161 508.286 184.34C506.572 184.685 504.859 185.028 503.145 185.371C500.984 185.804 498.824 186.238 496.663 186.672C496.469 186.711 496.275 186.75 496.075 186.79C494.902 187.025 494.902 187.025 493.729 187.261C492.561 187.496 491.393 187.73 490.224 187.964C485.663 188.88 481.102 189.8 476.543 190.73C476.073 190.826 475.603 190.922 475.133 191.017C473.254 191.4 471.376 191.784 469.499 192.17C468.768 192.32 468.036 192.469 467.305 192.618C466.823 192.716 466.342 192.816 465.86 192.915C465.58 192.972 465.299 193.029 465.01 193.088C464.77 193.137 464.53 193.187 464.283 193.237C463.641 193.338 463.042 193.36 462.393 193.341C462.544 191.582 463.009 189.971 463.518 188.285C463.599 188.012 463.68 187.738 463.764 187.457C463.963 186.787 464.164 186.118 464.365 185.449C464.575 185.451 464.785 185.454 465.001 185.456C467.27 185.4 469.128 184.925 471.235 184.078C472.257 183.679 473.059 183.433 474.162 183.483C475.268 183.529 475.82 183.22 476.696 182.521C477.039 182.255 477.039 182.255 477.389 181.983C477.944 181.55 477.944 181.55 478.176 181.01C477.748 180.964 477.748 180.964 477.312 180.918C476.427 180.812 475.609 180.617 474.761 180.345C473.323 180.142 472.139 180.628 470.896 181.296C470.752 181.373 470.607 181.449 470.459 181.527C470.004 181.769 469.55 182.013 469.097 182.259C468.639 182.504 468.181 182.749 467.722 182.992C467.309 183.212 466.897 183.434 466.485 183.656C465.845 183.969 465.845 183.969 465.352 183.969C465.647 182.384 466.007 180.842 466.47 179.298C466.561 178.99 466.561 178.99 466.654 178.676C466.852 178.004 467.052 177.334 467.253 176.663C467.393 176.19 467.533 175.717 467.673 175.244C468.041 174.002 468.41 172.76 468.779 171.518C469.151 170.267 469.522 169.016 469.893 167.764C470.313 166.35 470.732 164.936 471.152 163.522C471.217 163.304 471.282 163.086 471.349 162.862C471.466 162.466 471.584 162.069 471.702 161.673C472.303 159.653 472.896 157.631 473.49 155.609C473.835 155.548 473.835 155.548 474.187 155.486C479.816 154.487 485.445 153.489 491.074 152.49C493.796 152.007 496.519 151.524 499.241 151.041C501.617 150.62 503.993 150.198 506.369 149.777C507.624 149.554 508.879 149.331 510.134 149.109C515.512 148.155 520.889 147.2 526.264 146.238ZM478.484 171.716C478.23 171.839 477.977 171.962 477.716 172.089C476.65 172.614 475.657 173.118 474.723 173.859C477.02 174.25 478.651 173.987 480.777 173.183C481.484 172.925 482.122 172.752 482.861 172.625C483.986 172.408 484.69 171.86 485.574 171.146C483.022 169.728 480.909 170.491 478.484 171.716Z" fill="#0672B6"/>
<path d="M128.236 11.0959C131.736 11.0959 135.235 11.0959 138.841 11.0959C138.473 12.1986 138.143 13.0141 137.585 14.0032C137.434 14.2739 137.282 14.5447 137.126 14.8236C136.963 15.1121 136.8 15.4005 136.637 15.689C136.47 15.9852 136.304 16.2815 136.138 16.5779C135.886 17.0272 135.634 17.4765 135.382 17.9255C134.6 19.3177 133.829 20.716 133.061 22.1162C132.689 22.7927 132.318 23.4692 131.936 24.1662C134.458 24.2475 136.981 24.3289 139.58 24.4128C139.825 23.6803 139.825 23.6803 140.074 22.9331C140.289 22.5161 140.516 22.1055 140.756 21.702C140.891 21.4698 141.027 21.2375 141.167 20.9983C141.473 20.4883 141.783 19.9807 142.096 19.4753C142.931 18.1118 143.626 16.8231 144.149 15.3094C145.382 12.0828 145.382 12.0828 146.979 11.0959C150.326 10.1925 154.182 10.7481 157.583 11.0959C157.28 12.0804 156.926 12.9313 156.399 13.8153C156.261 14.0488 156.123 14.2823 155.981 14.5229C155.833 14.7704 155.685 15.0178 155.533 15.2728C155.222 15.7989 154.912 16.3252 154.601 16.8517C154.443 17.1212 154.284 17.3908 154.12 17.6685C153.339 19.0045 152.578 20.3516 151.818 21.7001C151.679 21.9474 151.54 22.1947 151.396 22.4495C151.074 23.0215 150.753 23.5938 150.431 24.1662C151.977 24.2475 153.524 24.3289 155.117 24.4128C154.839 26.0776 154.839 26.0776 154.552 26.8488C154.488 27.0207 154.425 27.1926 154.36 27.3697C154.292 27.5501 154.224 27.7305 154.153 27.9164C154.048 28.1997 154.048 28.1997 153.941 28.4888C153.793 28.8855 153.644 29.282 153.495 29.6782C153.267 30.2869 153.04 30.8965 152.814 31.5062C152.669 31.892 152.525 32.2778 152.381 32.6636C152.313 32.8465 152.245 33.0293 152.175 33.2178C151.693 34.4951 151.693 34.4951 151.418 34.7704C150.933 34.7214 150.45 34.6614 149.968 34.597C148.008 34.4239 146.125 34.2753 144.266 35.017C142.504 36.7188 141.572 39.0742 140.681 41.3201C140.32 42.1686 140.32 42.1686 139.334 43.8949C142.182 43.8949 145.03 43.8949 147.965 43.8949C147.739 45.0264 147.406 46.0455 147.002 47.1191C146.932 47.3078 146.861 47.4964 146.789 47.6908C146.641 48.0879 146.493 48.4848 146.344 48.8816C146.116 49.49 145.889 50.0989 145.662 50.7079C145.518 51.0941 145.374 51.4802 145.229 51.8663C145.161 52.0487 145.093 52.2311 145.023 52.419C144.542 53.7012 144.542 53.7012 144.266 54.2525C143.787 54.2191 143.787 54.2191 143.298 54.1851C137.673 53.6043 137.673 53.6043 132.388 54.9601C131.242 56.2 130.768 57.7172 130.273 59.3052C129.753 60.7566 128.963 62.0503 128.187 63.3774C127.775 64.0872 127.38 64.8057 126.984 65.5242C126.851 65.7645 126.718 66.0048 126.58 66.2523C126.386 66.6058 126.197 66.9621 126.017 67.3228C122.355 67.3228 118.693 67.3228 114.92 67.3228C115.918 65.3265 116.931 63.3963 118.064 61.4812C118.213 61.2274 118.362 60.9735 118.516 60.712C118.96 59.9558 119.406 59.2003 119.852 58.4448C120.109 58.0066 120.367 57.5683 120.624 57.1299C121.188 56.1702 121.752 55.2111 122.318 54.2525C117.989 53.6718 117.989 53.6718 114.032 54.9883C112.926 56.3444 112.277 57.9344 111.61 59.5393C110.991 60.9348 110.207 62.2262 109.425 63.5351C109.02 64.2149 108.627 64.9009 108.233 65.5869C108.101 65.8152 107.97 66.0436 107.834 66.2789C107.639 66.6221 107.451 66.9697 107.275 67.3228C103.694 67.3228 100.113 67.3228 96.4238 67.3228C97.422 65.3265 98.4351 63.3963 99.5681 61.4812C99.7172 61.2274 99.8664 60.9735 100.02 60.712C100.465 59.9558 100.91 59.2003 101.356 58.4448C101.721 57.8234 102.086 57.2017 102.451 56.58C102.908 55.8038 103.365 55.0282 103.822 54.2525C102.194 54.2525 100.567 54.2525 98.8899 54.2525C99.4463 52.0441 100.198 49.9453 101.017 47.8252C101.142 47.4973 101.267 47.1692 101.393 46.8412C102.294 44.485 102.294 44.485 102.589 43.8949C102.786 43.9223 102.984 43.9497 103.187 43.9779C105.372 44.2316 107.647 44.4403 109.741 43.6483C111.405 42.1124 112.269 39.9266 113.074 37.8491C113.527 36.7852 114.111 35.7813 114.673 34.7704C111.825 34.7704 108.976 34.7704 106.042 34.7704C106.494 33.2634 106.943 31.8009 107.501 30.3372C107.558 30.1845 107.616 30.0319 107.675 29.8746C107.885 29.3175 108.096 28.761 108.307 28.2044C109.017 26.3275 109.017 26.3275 109.741 24.4128C113.484 24.4128 117.228 24.4128 121.085 24.4128C121.329 23.6803 121.329 23.6803 121.578 22.9331C121.817 22.4542 122.069 21.9813 122.331 21.5141C122.482 21.2447 122.632 20.9752 122.787 20.6976C122.949 20.41 123.111 20.1226 123.273 19.8351C123.439 19.5395 123.605 19.2438 123.77 18.9481C125.242 16.3211 126.736 13.7069 128.236 11.0959ZM124.537 35.5477C123.968 36.417 123.619 37.3617 123.289 38.3432C122.881 39.4358 122.261 40.4112 121.67 41.4134C120.91 42.5883 120.91 42.5883 120.592 43.8949C121.653 43.95 122.714 43.9901 123.776 44.0168C124.137 44.0279 124.498 44.043 124.859 44.0623C126.92 44.237 126.92 44.237 128.753 43.4928C129.151 42.9071 129.43 42.3232 129.716 41.6754C129.988 41.2018 130.265 40.7305 130.545 40.2613C130.824 39.7673 131.103 39.2727 131.381 38.7777C131.594 38.4025 131.594 38.4025 131.811 38.0196C132.413 36.9519 132.981 35.9187 133.415 34.7704C128.688 34.0621 128.688 34.0621 124.537 35.5477Z" fill="#FEFEFE"/>
<path d="M415.463 12.0547C415.909 12.0555 415.909 12.0555 416.364 12.0563C416.527 12.0563 416.691 12.0563 416.86 12.0562C417.403 12.0564 417.946 12.0583 418.489 12.0603C418.865 12.0607 419.24 12.0611 419.616 12.0613C420.606 12.0623 421.597 12.0647 422.587 12.0674C423.597 12.0699 424.607 12.0711 425.617 12.0723C427.6 12.0749 429.583 12.0792 431.566 12.0843C431.419 12.9121 431.214 13.6569 430.901 14.4366C430.772 14.7608 430.772 14.7608 430.64 15.0915C430.546 15.3243 430.452 15.5571 430.355 15.797C430.257 16.0426 430.158 16.2883 430.057 16.5414C429.734 17.3476 429.409 18.1531 429.084 18.9586C428.858 19.5214 428.632 20.0842 428.406 20.6471C426.929 24.3231 425.433 27.9916 423.924 31.6548C422.631 34.7953 421.355 37.9424 420.083 41.0917C419.985 41.3345 419.887 41.5772 419.786 41.8273C419.396 42.7938 419.006 43.7603 418.616 44.7268C417.101 48.48 415.578 52.2301 414.057 55.9808C419.591 55.9808 425.124 55.9808 430.826 55.9808C429.877 60.7263 427.445 65.0509 425.647 69.5443C414.417 69.5443 403.186 69.5443 391.615 69.5443C391.803 68.4181 391.973 67.69 392.403 66.6765C392.517 66.406 392.63 66.1356 392.747 65.8569C392.872 65.5631 392.997 65.2693 393.126 64.9666C393.399 64.3154 393.672 63.6637 393.945 63.012C394.016 62.8412 394.088 62.6705 394.162 62.4945C394.973 60.556 395.76 58.6076 396.547 56.6589C396.861 55.8828 397.175 55.1067 397.49 54.3306C397.571 54.1293 397.653 53.928 397.737 53.7206C398.804 51.0859 399.88 48.455 400.956 45.8236C402.578 41.8526 404.194 37.8791 405.801 33.9019C407.478 29.7523 409.168 25.6084 410.863 21.4661C411.06 20.9854 411.256 20.5047 411.453 20.024C411.547 19.7934 411.641 19.5628 411.739 19.3252C412.215 18.1587 412.687 16.9907 413.152 15.8198C413.243 15.5903 413.334 15.3607 413.429 15.1241C413.601 14.6883 413.774 14.2522 413.945 13.8159C414.628 12.0918 414.628 12.0918 415.463 12.0547Z" fill="#FEFEFE"/>
<path d="M453.934 12.0547C454.38 12.0555 454.38 12.0555 454.835 12.0563C454.999 12.0563 455.162 12.0563 455.331 12.0562C455.874 12.0564 456.417 12.0583 456.96 12.0603C457.336 12.0607 457.711 12.0611 458.087 12.0613C459.077 12.0623 460.068 12.0647 461.058 12.0674C462.068 12.0699 463.078 12.0711 464.088 12.0723C466.071 12.0749 468.054 12.0792 470.037 12.0843C469.886 12.9527 469.658 13.7202 469.323 14.535C469.226 14.7725 469.13 15.0099 469.03 15.2545C468.871 15.6384 468.871 15.6384 468.71 16.0301C468.6 16.299 468.49 16.568 468.376 16.8451C468.016 17.7247 467.655 18.6036 467.294 19.4826C467.043 20.0938 466.793 20.7051 466.543 21.3165C466.167 22.235 465.791 23.1534 465.415 24.0717C464.503 26.2946 463.598 28.5199 462.698 30.7473C461.112 34.6694 459.513 38.586 457.913 42.5023C456.471 46.0318 455.035 49.5636 453.607 53.0985C452.104 56.8164 450.593 60.5305 449.075 64.2422C448.928 64.6024 448.928 64.6024 448.778 64.9699C448.502 65.6445 448.226 66.319 447.95 66.9934C447.868 67.1953 447.785 67.3972 447.7 67.6052C447.131 68.9942 447.131 68.9942 446.856 69.5443C441.241 69.5443 435.625 69.5443 429.84 69.5443C431.538 65.0147 431.538 65.0147 432.352 63.038C432.491 62.6988 432.491 62.6988 432.633 62.3527C432.831 61.8681 433.029 61.3836 433.228 60.8992C433.549 60.1167 433.87 59.3339 434.19 58.5511C434.531 57.7196 434.871 56.8881 435.211 56.0567C436.343 53.2929 437.47 50.5271 438.597 47.761C439.049 46.6498 439.502 45.5386 439.954 44.4274C440.183 43.8667 440.411 43.3059 440.639 42.7452C441.458 40.7355 442.277 38.7259 443.096 36.7164C446.014 29.5587 446.014 29.5587 448.921 22.3969C449.355 21.3243 449.79 20.2519 450.225 19.1794C450.539 18.4044 450.853 17.6294 451.167 16.8542C451.486 16.0655 451.807 15.2771 452.127 14.4888C452.217 14.2667 452.307 14.0447 452.399 13.8159C453.102 12.0917 453.102 12.0917 453.934 12.0547Z" fill="#FEFEFE"/>
<path d="M394.5 12.0547C394.946 12.0555 394.946 12.0555 395.401 12.0563C395.565 12.0563 395.729 12.0563 395.897 12.0562C396.44 12.0564 396.983 12.0583 397.527 12.0603C397.902 12.0607 398.278 12.0611 398.653 12.0613C399.644 12.0623 400.634 12.0647 401.625 12.0674C402.635 12.0699 403.645 12.0711 404.655 12.0723C406.638 12.0749 408.621 12.0792 410.604 12.0843C410.155 13.6622 409.642 15.1832 409.011 16.6967C408.928 16.8977 408.846 17.0987 408.761 17.3059C408.581 17.7415 408.401 18.1769 408.221 18.6121C407.93 19.3158 407.639 20.02 407.35 20.7244C407.038 21.482 406.726 22.2396 406.414 22.997C405.156 26.0503 403.911 29.109 402.666 32.1676C402.432 32.7421 402.198 33.3167 401.964 33.8912C400.69 37.0198 399.418 40.1493 398.15 43.2804C394.6 52.0456 391.031 60.8031 387.422 69.5443C381.807 69.5443 376.192 69.5443 370.406 69.5443C372.105 65.0147 372.105 65.0147 372.919 63.038C373.011 62.8117 373.104 62.5854 373.199 62.3523C373.398 61.8675 373.596 61.3829 373.795 60.8984C374.115 60.1183 374.435 59.338 374.754 58.5576C375.209 57.4457 375.664 56.334 376.119 55.2223C377.275 52.3989 378.426 49.5736 379.577 46.7483C379.691 46.468 379.806 46.1876 379.923 45.8988C381.494 42.0425 383.06 38.184 384.62 34.3234C386.571 29.4994 388.536 24.6815 390.506 19.8657C391.005 18.6449 391.503 17.4235 391.999 16.2011C392.101 15.9495 392.204 15.6979 392.309 15.4387C392.505 14.9559 392.701 14.473 392.896 13.9898C392.983 13.7755 393.07 13.5611 393.16 13.3403C393.237 13.1508 393.314 12.9612 393.393 12.766C393.697 12.0859 393.716 12.0896 394.5 12.0547Z" fill="#FEFEFE"/>
</g>
<defs>
<clipPath id="clip0_349_232">
<rect width="587.916" height="200" fill="white"/>
</clipPath>
</defs>
</svg>
